ISO-10303-21;
HEADER;
FILE_DESCRIPTION (( 'STEP AP214' ),
    '1' );
FILE_NAME ('SM_PuzzleCube_Corner_Shell.stp',
    '2026-08-22T01:10:20',
    ( '' ),
    ( '' ),
    'SwSTEP 2.0',
    'SolidWorks 2025',
    '' );
FILE_SCHEMA (( 'AUTOMOTIVE_DESIGN' ));
ENDSEC;

DATA;
#1 = CARTESIAN_POINT ( 'NONE',  ( 3.499999999999999556, 3.146446609406726935, 2.602085213965210642E-16 ) ) ;
#2 = CIRCLE ( 'NONE', #600, 1.280624847486570017 ) ;
#3 = VECTOR ( 'NONE', #134, 100.0000000000000000 ) ;
#4 = ORIENTED_EDGE ( 'NONE', *, *, #384, .F. ) ;
#5 = LINE ( 'NONE', #608, #45 ) ;
#6 = CARTESIAN_POINT ( 'NONE',  ( 3.999999999999999556, 3.146446609406727823, 0.2500000000000002220 ) ) ;
#7 = EDGE_CURVE ( 'NONE', #858, #82, #2, .T. ) ;
#8 = ORIENTED_EDGE ( 'NONE', *, *, #672, .T. ) ;
#9 = CARTESIAN_POINT ( 'NONE',  ( 3.146446609406725603, 0.000000000000000000, 3.500000000000000888 ) ) ;
#10 = CARTESIAN_POINT ( 'NONE',  ( 0.2499999999999988343, 4.000000000000000000, 3.500000000000000444 ) ) ;
#11 = AXIS2_PLACEMENT_3D ( 'NONE', #775, #525, #903 ) ;
#12 = AXIS2_PLACEMENT_3D ( 'NONE', #9, #528, #587 ) ;
#13 = DIRECTION ( 'NONE',  ( 0.000000000000000000, 1.000000000000000000, 1.387778780781446662E-15 ) ) ;
#14 = ORIENTED_EDGE ( 'NONE', *, *, #126, .T. ) ;
#15 = UNCERTAINTY_MEASURE_WITH_UNIT (LENGTH_MEASURE( 1.000000000000000082E-05 ), #730, 'distance_accuracy_value', 'NONE');
#16 = DIRECTION ( 'NONE',  ( -0.000000000000000000, -1.000000000000000000, -4.440892098500624683E-16 ) ) ;
#17 = LINE ( 'NONE', #693, #424 ) ;
#18 = DIRECTION ( 'NONE',  ( 0.000000000000000000, 0.000000000000000000, -1.000000000000000000 ) ) ;
#19 = ORIENTED_EDGE ( 'NONE', *, *, #927, .F. ) ;
#20 = CARTESIAN_POINT ( 'NONE',  ( 3.146446609406725603, 0.5000000000000000000, 4.000000000000000000 ) ) ;
#21 = DIRECTION ( 'NONE',  ( 2.220446049250313081E-16, -1.000000000000000000, 0.000000000000000000 ) ) ;
#22 = FACE_OUTER_BOUND ( 'NONE', #960, .T. ) ;
#23 = ORIENTED_EDGE ( 'NONE', *, *, #290, .F. ) ;
#24 = DIRECTION ( 'NONE',  ( -1.000000000000000000, 0.000000000000000000, 0.000000000000000000 ) ) ;
#25 = LINE ( 'NONE', #323, #556 ) ;
#26 = ORIENTED_EDGE ( 'NONE', *, *, #837, .F. ) ;
#27 = DIRECTION ( 'NONE',  ( 1.000000000000000000, 0.000000000000000000, 0.000000000000000000 ) ) ;
#28 = EDGE_CURVE ( 'NONE', #778, #342, #751, .T. ) ;
#29 = ADVANCED_FACE ( 'NONE', ( #832 ), #742, .F. ) ;
#30 = CARTESIAN_POINT ( 'NONE',  ( -6.938893903907228378E-16, 3.146446609406725603, 3.500000000000000888 ) ) ;
#31 = ORIENTED_EDGE ( 'NONE', *, *, #36, .F. ) ;
#32 = CARTESIAN_POINT ( 'NONE',  ( 3.999999999999999556, 3.146446609406727823, 1.734723475976807094E-16 ) ) ;
#33 = DIRECTION ( 'NONE',  ( 1.000000000000000000, 0.000000000000000000, 0.000000000000000000 ) ) ;
#34 = VERTEX_POINT ( 'NONE', #589 ) ;
#35 = CARTESIAN_POINT ( 'NONE',  ( 3.146446609406725159, 3.750000000000000444, 0.2500000000000004996 ) ) ;
#36 = EDGE_CURVE ( 'NONE', #108, #185, #173, .T. ) ;
#37 = EDGE_CURVE ( 'NONE', #824, #34, #295, .T. ) ;
#38 = ORIENTED_EDGE ( 'NONE', *, *, #386, .T. ) ;
#39 = DIRECTION ( 'NONE',  ( 0.000000000000000000, 0.000000000000000000, -1.000000000000000000 ) ) ;
#40 =( NAMED_UNIT ( * ) SI_UNIT ( $, .STERADIAN. ) SOLID_ANGLE_UNIT ( ) );
#41 = ADVANCED_FACE ( 'NONE', ( #892 ), #907, .F. ) ;
#42 = AXIS2_PLACEMENT_3D ( 'NONE', #130, #574, #357 ) ;
#43 = VERTEX_POINT ( 'NONE', #820 ) ;
#44 = LINE ( 'NONE', #972, #678 ) ;
#45 = VECTOR ( 'NONE', #918, 100.0000000000000000 ) ;
#46 = ORIENTED_EDGE ( 'NONE', *, *, #956, .T. ) ;
#47 = CARTESIAN_POINT ( 'NONE',  ( -6.071532165918825817E-16, 3.500000000000000444, 3.500000000000000444 ) ) ;
#48 = ORIENTED_EDGE ( 'NONE', *, *, #987, .T. ) ;
#49 = FACE_OUTER_BOUND ( 'NONE', #583, .T. ) ;
#50 = EDGE_CURVE ( 'NONE', #356, #185, #449, .T. ) ;
#51 = EDGE_CURVE ( 'NONE', #225, #132, #146, .T. ) ;
#52 = AXIS2_PLACEMENT_3D ( 'NONE', #836, #843, #150 ) ;
#53 = TOROIDAL_SURFACE ( 'NONE', #658, 0.2500000000000000000, 0.2500000000000000000 ) ;
#54 = DIRECTION ( 'NONE',  ( -1.000000000000000000, 0.000000000000000000, -0.000000000000000000 ) ) ;
#55 = ORIENTED_EDGE ( 'NONE', *, *, #959, .F. ) ;
#56 = DIRECTION ( 'NONE',  ( -1.000000000000000000, 0.000000000000000000, 0.000000000000000000 ) ) ;
#57 = ORIENTED_EDGE ( 'NONE', *, *, #766, .F. ) ;
#58 = DIRECTION ( 'NONE',  ( -1.000000000000000000, -2.220446049250313081E-16, 0.000000000000000000 ) ) ;
#59 = ORIENTED_EDGE ( 'NONE', *, *, #478, .F. ) ;
#60 = FACE_OUTER_BOUND ( 'NONE', #199, .T. ) ;
#61 = EDGE_CURVE ( 'NONE', #824, #129, #914, .T. ) ;
#62 = EDGE_LOOP ( 'NONE', ( #813, #19, #31, #135 ) ) ;
#63 = CARTESIAN_POINT ( 'NONE',  ( 0.2499999999999991396, 4.000000000000000000, 3.146446609406727823 ) ) ;
#64 = COLOUR_RGB ( '',0.7921568627450980005, 0.8196078431372548767, 0.9333333333333333481 ) ;
#65 = CARTESIAN_POINT ( 'NONE',  ( 4.000000000000000000, 0.000000000000000000, 4.000000000000000000 ) ) ;
#66 = PRODUCT_DEFINITION_CONTEXT ( 'detailed design', #340, 'design' ) ;
#67 = CARTESIAN_POINT ( 'NONE',  ( 3.146446609406725603, 0.000000000000000000, 4.000000000000000888 ) ) ;
#68 = LINE ( 'NONE', #771, #695 ) ;
#69 = MECHANICAL_DESIGN_GEOMETRIC_PRESENTATION_REPRESENTATION (  '', ( #939 ), #246 ) ;
#70 = EDGE_CURVE ( 'NONE', #43, #789, #811, .T. ) ;
#71 = ORIENTED_EDGE ( 'NONE', *, *, #143, .T. ) ;
#72 = CARTESIAN_POINT ( 'NONE',  ( 3.146446609406725603, 0.000000000000000000, 3.500000000000000888 ) ) ;
#73 = DIRECTION ( 'NONE',  ( 0.000000000000000000, 0.000000000000000000, 1.000000000000000000 ) ) ;
#74 = CYLINDRICAL_SURFACE ( 'NONE', #564, 0.5000000000000001110 ) ;
#75 = DIRECTION ( 'NONE',  ( 0.7071067811865483499, -0.7071067811865466846, -2.474634689813728034E-16 ) ) ;
#76 = ORIENTED_EDGE ( 'NONE', *, *, #415, .F. ) ;
#77 = DIRECTION ( 'NONE',  ( 0.7071067811865483499, -0.7071067811865466846, -2.474634689813728034E-16 ) ) ;
#78 = CARTESIAN_POINT ( 'NONE',  ( 1.178982612255156104, 4.000000000000000888, 0.5000000000000000000 ) ) ;
#79 = PLANE ( 'NONE',  #11 ) ;
#80 = AXIS2_PLACEMENT_3D ( 'NONE', #529, #438, #73 ) ;
#81 = EDGE_CURVE ( 'NONE', #350, #509, #636, .T. ) ;
#82 = VERTEX_POINT ( 'NONE', #78 ) ;
#83 = DIRECTION ( 'NONE',  ( 1.387778780781446662E-15, -0.000000000000000000, -1.000000000000000000 ) ) ;
#84 = DIRECTION ( 'NONE',  ( 1.000000000000000000, -2.664535259100375697E-15, 0.000000000000000000 ) ) ;
#85 = DIRECTION ( 'NONE',  ( -3.081487911019579554E-31, 1.387778780781446662E-15, -1.000000000000000000 ) ) ;
#86 = ORIENTED_EDGE ( 'NONE', *, *, #855, .T. ) ;
#87 = DIRECTION ( 'NONE',  ( -0.000000000000000000, 0.000000000000000000, -1.000000000000000000 ) ) ;
#88 = LINE ( 'NONE', #240, #482 ) ;
#89 = VECTOR ( 'NONE', #75, 100.0000000000000142 ) ;
#90 = DIRECTION ( 'NONE',  ( 1.279215891003199401E-16, -1.000000000000000000, -2.220446049250312341E-16 ) ) ;
#91 = VECTOR ( 'NONE', #877, 100.0000000000000000 ) ;
#92 = ORIENTED_EDGE ( 'NONE', *, *, #257, .T. ) ;
#93 = CARTESIAN_POINT ( 'NONE',  ( 0.2499999999999991673, 3.750000000000000444, 3.500000000000000444 ) ) ;
#94 = CARTESIAN_POINT ( 'NONE',  ( -7.806255641895631925E-16, 3.500000000000000444, 3.146446609406726935 ) ) ;
#95 = DIRECTION ( 'NONE',  ( 1.734723475976807094E-16, -1.000000000000000000, 0.000000000000000000 ) ) ;
#96 = ORIENTED_EDGE ( 'NONE', *, *, #968, .F. ) ;
#97 = FILL_AREA_STYLE ('',( #784 ) ) ;
#98 = CARTESIAN_POINT ( 'NONE',  ( 3.499999999999999556, 3.146446609406726935, 0.5000000000000002220 ) ) ;
#99 = LINE ( 'NONE', #396, #91 ) ;
#100 = EDGE_CURVE ( 'NONE', #462, #447, #898, .T. ) ;
#101 = DIRECTION ( 'NONE',  ( 0.7071067811865483499, -0.7071067811865466846, 0.000000000000000000 ) ) ;
#102 = AXIS2_PLACEMENT_3D ( 'NONE', #986, #834, #152 ) ;
#103 = ORIENTED_EDGE ( 'NONE', *, *, #739, .T. ) ;
#104 = FACE_OUTER_BOUND ( 'NONE', #846, .T. ) ;
#105 = VECTOR ( 'NONE', #87, 100.0000000000000000 ) ;
#106 = VECTOR ( 'NONE', #759, 100.0000000000000000 ) ;
#107 = DIRECTION ( 'NONE',  ( 1.279215891003199648E-16, -4.440892098500625176E-16, 1.000000000000000000 ) ) ;
#108 = VERTEX_POINT ( 'NONE', #688 ) ;
#109 = EDGE_CURVE ( 'NONE', #439, #320, #5, .T. ) ;
#110 = DIRECTION ( 'NONE',  ( 2.220446049250313081E-16, -1.000000000000000000, 0.000000000000000000 ) ) ;
#111 = ADVANCED_FACE ( 'NONE', ( #230 ), #735, .T. ) ;
#112 = CARTESIAN_POINT ( 'NONE',  ( 0.2499999999999992228, 3.500000000000000444, 3.500000000000000444 ) ) ;
#113 = AXIS2_PLACEMENT_3D ( 'NONE', #252, #798, #867 ) ;
#114 = ORIENTED_EDGE ( 'NONE', *, *, #478, .T. ) ;
#115 = CARTESIAN_POINT ( 'NONE',  ( -6.938893903907228378E-16, 3.146446609406725603, 4.000000000000000888 ) ) ;
#116 = ADVANCED_FACE ( 'NONE', ( #355 ), #860, .T. ) ;
#117 = AXIS2_PLACEMENT_3D ( 'NONE', #630, #639, #101 ) ;
#118 = ORIENTED_EDGE ( 'NONE', *, *, #37, .T. ) ;
#119 = FACE_OUTER_BOUND ( 'NONE', #214, .T. ) ;
#120 = DIRECTION ( 'NONE',  ( -1.000000000000000000, -0.000000000000000000, -0.000000000000000000 ) ) ;
#121 = CIRCLE ( 'NONE', #857, 0.2500000000000002220 ) ;
#122 = ORIENTED_EDGE ( 'NONE', *, *, #526, .F. ) ;
#123 = FACE_OUTER_BOUND ( 'NONE', #970, .T. ) ;
#124 = AXIS2_PLACEMENT_3D ( 'NONE', #155, #458, #400 ) ;
#125 = ORIENTED_EDGE ( 'NONE', *, *, #81, .T. ) ;
#126 = EDGE_CURVE ( 'NONE', #565, #193, #728, .T. ) ;
#127 = CARTESIAN_POINT ( 'NONE',  ( 3.750000000000000000, 0.000000000000000000, 3.146446609406726935 ) ) ;
#128 = DIRECTION ( 'NONE',  ( 0.000000000000000000, -0.000000000000000000, 1.000000000000000000 ) ) ;
#129 = VERTEX_POINT ( 'NONE', #98 ) ;
#130 = CARTESIAN_POINT ( 'NONE',  ( 3.750000000000000000, 3.146446609406727823, 0.2500000000000002220 ) ) ;
#131 = VECTOR ( 'NONE', #769, 100.0000000000000000 ) ;
#132 = VERTEX_POINT ( 'NONE', #170 ) ;
#133 = AXIS2_PLACEMENT_3D ( 'NONE', #47, #498, #808 ) ;
#134 = DIRECTION ( 'NONE',  ( 1.279215891003199648E-16, -4.440892098500625669E-16, 1.000000000000000000 ) ) ;
#135 = ORIENTED_EDGE ( 'NONE', *, *, #386, .F. ) ;
#136 = CARTESIAN_POINT ( 'NONE',  ( -7.806255641895631925E-16, 3.500000000000000444, 3.750000000000000000 ) ) ;
#137 = EDGE_CURVE ( 'NONE', #509, #364, #848, .T. ) ;
#138 = ORIENTED_EDGE ( 'NONE', *, *, #347, .F. ) ;
#139 = DIRECTION ( 'NONE',  ( 1.000000000000000000, -0.000000000000000000, -0.000000000000000000 ) ) ;
#140 = CARTESIAN_POINT ( 'NONE',  ( 0.000000000000000000, 0.000000000000000000, 4.000000000000000000 ) ) ;
#141 = DIRECTION ( 'NONE',  ( 0.000000000000000000, -1.000000000000000000, 0.000000000000000000 ) ) ;
#142 = PLANE ( 'NONE',  #308 ) ;
#143 = EDGE_CURVE ( 'NONE', #736, #789, #25, .T. ) ;
#144 = VERTEX_POINT ( 'NONE', #94 ) ;
#145 = LINE ( 'NONE', #370, #655 ) ;
#146 = LINE ( 'NONE', #764, #503 ) ;
#147 = FACE_OUTER_BOUND ( 'NONE', #667, .T. ) ;
#148 = LINE ( 'NONE', #451, #89 ) ;
#149 = ORIENTED_EDGE ( 'NONE', *, *, #923, .T. ) ;
#150 = DIRECTION ( 'NONE',  ( 0.000000000000000000, 0.000000000000000000, -1.000000000000000000 ) ) ;
#151 = ORIENTED_EDGE ( 'NONE', *, *, #336, .F. ) ;
#152 = DIRECTION ( 'NONE',  ( 0.000000000000000000, 0.000000000000000000, 1.000000000000000000 ) ) ;
#153 = EDGE_LOOP ( 'NONE', ( #375, #717, #586, #548, #807, #213 ) ) ;
#154 = CARTESIAN_POINT ( 'NONE',  ( 3.146446609406725159, 4.000000000000000888, 4.336808689942017736E-16 ) ) ;
#155 = CARTESIAN_POINT ( 'NONE',  ( -7.806255641895631925E-16, 3.500000000000000444, 3.500000000000000444 ) ) ;
#156 = EDGE_CURVE ( 'NONE', #565, #225, #390, .T. ) ;
#157 = CARTESIAN_POINT ( 'NONE',  ( 3.146446609406725603, 0.5000000000000000000, 3.500000000000000888 ) ) ;
#158 = VERTEX_POINT ( 'NONE', #382 ) ;
#159 = LINE ( 'NONE', #847, #697 ) ;
#160 = PLANE ( 'NONE',  #124 ) ;
#161 = EDGE_CURVE ( 'NONE', #862, #783, #17, .T. ) ;
#162 = LINE ( 'NONE', #909, #610 ) ;
#163 = ORIENTED_EDGE ( 'NONE', *, *, #489, .T. ) ;
#164 = FACE_OUTER_BOUND ( 'NONE', #269, .T. ) ;
#165 = CYLINDRICAL_SURFACE ( 'NONE', #179, 0.2500000000000000000 ) ;
#166 = CYLINDRICAL_SURFACE ( 'NONE', #805, 0.2500000000000000000 ) ;
#167 = CIRCLE ( 'NONE', #294, 0.2500000000000002220 ) ;
#168 = ORIENTED_EDGE ( 'NONE', *, *, #746, .F. ) ;
#169 = DIRECTION ( 'NONE',  ( 2.220446049250313081E-16, -1.000000000000000000, 0.000000000000000000 ) ) ;
#170 = CARTESIAN_POINT ( 'NONE',  ( 0.4999999999999993339, 3.146446609406725603, 3.500000000000000888 ) ) ;
#171 = ADVANCED_FACE ( 'NONE', ( #626 ), #160, .T. ) ;
#172 = FACE_OUTER_BOUND ( 'NONE', #341, .T. ) ;
#173 = CIRCLE ( 'NONE', #785, 0.2500000000000000000 ) ;
#174 = VERTEX_POINT ( 'NONE', #770 ) ;
#175 = CARTESIAN_POINT ( 'NONE',  ( 3.500000000000000444, 3.500000000000000888, 4.000000000000000000 ) ) ;
#176 = ORIENTED_EDGE ( 'NONE', *, *, #61, .T. ) ;
#177 = CARTESIAN_POINT ( 'NONE',  ( -6.938893903907228378E-16, 3.146446609406725603, 4.000000000000000888 ) ) ;
#178 = CARTESIAN_POINT ( 'NONE',  ( 4.000000000000000000, 4.000000000000000888, 0.5000000000000000000 ) ) ;
#179 = AXIS2_PLACEMENT_3D ( 'NONE', #616, #21, #235 ) ;
#180 = ORIENTED_EDGE ( 'NONE', *, *, #806, .F. ) ;
#181 = CARTESIAN_POINT ( 'NONE',  ( 0.000000000000000000, 0.000000000000000000, 0.000000000000000000 ) ) ;
#182 = AXIS2_PLACEMENT_3D ( 'NONE', #524, #676, #833 ) ;
#183 = AXIS2_PLACEMENT_3D ( 'NONE', #724, #273, #576 ) ;
#184 = CARTESIAN_POINT ( 'NONE',  ( 3.500000000000000444, 3.750000000000000444, 0.2500000000000004996 ) ) ;
#185 = VERTEX_POINT ( 'NONE', #932 ) ;
#186 = DIRECTION ( 'NONE',  ( -1.279215891003199648E-16, 4.440892098500625176E-16, -1.000000000000000000 ) ) ;
#187 = VECTOR ( 'NONE', #874, 100.0000000000000000 ) ;
#188 = VERTEX_POINT ( 'NONE', #247 ) ;
#189 = CARTESIAN_POINT ( 'NONE',  ( 0.2499999999999992228, 3.500000000000000444, 3.500000000000000444 ) ) ;
#190 = VECTOR ( 'NONE', #704, 100.0000000000000000 ) ;
#191 = ORIENTED_EDGE ( 'NONE', *, *, #628, .F. ) ;
#192 = CARTESIAN_POINT ( 'NONE',  ( 4.000000000000000000, 0.5000000000000000000, 4.000000000000000000 ) ) ;
#193 = VERTEX_POINT ( 'NONE', #464 ) ;
#194 = LINE ( 'NONE', #810, #106 ) ;
#195 = AXIS2_PLACEMENT_3D ( 'NONE', #65, #535, #366 ) ;
#196 = VERTEX_POINT ( 'NONE', #10 ) ;
#197 = CARTESIAN_POINT ( 'NONE',  ( 0.5000000000000000000, 1.178982612255158768, 4.000000000000000000 ) ) ;
#198 =( LENGTH_UNIT ( ) NAMED_UNIT ( * ) SI_UNIT ( .CENTI., .METRE. ) );
#199 = EDGE_LOOP ( 'NONE', ( #916, #723, #202, #618, #244 ) ) ;
#200 = ADVANCED_FACE ( 'NONE', ( #709 ), #631, .T. ) ;
#201 = DIRECTION ( 'NONE',  ( 0.000000000000000000, 1.000000000000000000, 0.000000000000000000 ) ) ;
#202 = ORIENTED_EDGE ( 'NONE', *, *, #837, .T. ) ;
#203 = DIRECTION ( 'NONE',  ( 0.000000000000000000, -1.000000000000000000, 0.000000000000000000 ) ) ;
#204 = ADVANCED_FACE ( 'NONE', ( #312 ), #165, .T. ) ;
#205 = ORIENTED_EDGE ( 'NONE', *, *, #740, .F. ) ;
#206 = CARTESIAN_POINT ( 'NONE',  ( 3.146446609406725603, 0.000000000000000000, 3.500000000000000888 ) ) ;
#207 = VECTOR ( 'NONE', #627, 100.0000000000000000 ) ;
#208 = DIRECTION ( 'NONE',  ( 2.220446049250313081E-16, -1.000000000000000000, 0.000000000000000000 ) ) ;
#209 = ORIENTED_EDGE ( 'NONE', *, *, #849, .F. ) ;
#210 = DIRECTION ( 'NONE',  ( -2.220446049250313081E-16, 1.000000000000000000, -0.000000000000000000 ) ) ;
#211 = EDGE_CURVE ( 'NONE', #348, #158, #88, .T. ) ;
#212 = CYLINDRICAL_SURFACE ( 'NONE', #818, 0.2500000000000002220 ) ;
#213 = ORIENTED_EDGE ( 'NONE', *, *, #987, .F. ) ;
#214 = EDGE_LOOP ( 'NONE', ( #641, #878, #55, #665 ) ) ;
#215 = CARTESIAN_POINT ( 'NONE',  ( 3.750000000000000444, 0.000000000000000000, 3.500000000000000444 ) ) ;
#216 = CARTESIAN_POINT ( 'NONE',  ( 3.750000000000000444, 3.500000000000000888, 0.2500000000000003331 ) ) ;
#217 = AXIS2_PLACEMENT_3D ( 'NONE', #682, #58, #208 ) ;
#218 = CARTESIAN_POINT ( 'NONE',  ( 0.2500000000000000000, 5.551115123125782702E-17, 4.000000000000000000 ) ) ;
#219 = DIRECTION ( 'NONE',  ( -1.570092458683776646E-16, 0.7071067811865482389, -0.7071067811865467956 ) ) ;
#220 = EDGE_LOOP ( 'NONE', ( #360, #830, #86, #952, #426, #976 ) ) ;
#221 = DIRECTION ( 'NONE',  ( 1.000000000000000000, 1.515700369881766405E-15, -1.279215891003196443E-16 ) ) ;
#222 = DIRECTION ( 'NONE',  ( 1.000000000000000000, 2.220446049250313081E-16, -0.000000000000000000 ) ) ;
#223 = DIRECTION ( 'NONE',  ( 0.000000000000000000, 0.000000000000000000, -1.000000000000000000 ) ) ;
#224 = AXIS2_PLACEMENT_3D ( 'NONE', #633, #186, #637 ) ;
#225 = VERTEX_POINT ( 'NONE', #854 ) ;
#226 = LINE ( 'NONE', #912, #819 ) ;
#227 = AXIS2_PLACEMENT_3D ( 'NONE', #614, #83, #463 ) ;
#228 = EDGE_CURVE ( 'NONE', #778, #196, #468, .T. ) ;
#229 = EDGE_CURVE ( 'NONE', #929, #292, #162, .T. ) ;
#230 = FACE_OUTER_BOUND ( 'NONE', #153, .T. ) ;
#231 = CIRCLE ( 'NONE', #794, 0.5000000000000001110 ) ;
#232 = DIRECTION ( 'NONE',  ( -0.000000000000000000, 1.000000000000000000, -0.000000000000000000 ) ) ;
#233 = ORIENTED_EDGE ( 'NONE', *, *, #407, .T. ) ;
#234 = DIRECTION ( 'NONE',  ( -0.000000000000000000, 1.000000000000000000, -0.000000000000000000 ) ) ;
#235 = DIRECTION ( 'NONE',  ( 1.000000000000000000, 2.220446049250313081E-16, 0.000000000000000000 ) ) ;
#236 = FACE_OUTER_BOUND ( 'NONE', #944, .T. ) ;
#237 = AXIS2_PLACEMENT_3D ( 'NONE', #112, #853, #481 ) ;
#238 = ORIENTED_EDGE ( 'NONE', *, *, #347, .T. ) ;
#239 = CARTESIAN_POINT ( 'NONE',  ( 0.2499999999999993061, 3.146446609406725603, 4.000000000000000888 ) ) ;
#240 = CARTESIAN_POINT ( 'NONE',  ( 3.146446609406725159, 4.000000000000000888, 0.5000000000000004441 ) ) ;
#241 = ADVANCED_FACE ( 'NONE', ( #236 ), #142, .T. ) ;
#242 = CIRCLE ( 'NONE', #363, 0.5000000000000001110 ) ;
#243 = CARTESIAN_POINT ( 'NONE',  ( -7.806255641895631925E-16, 3.500000000000000444, 3.146446609406726935 ) ) ;
#244 = ORIENTED_EDGE ( 'NONE', *, *, #435, .F. ) ;
#245 = CARTESIAN_POINT ( 'NONE',  ( 3.500000000000000444, 4.000000000000000888, 4.000000000000000000 ) ) ;
#246 =( GEOMETRIC_REPRESENTATION_CONTEXT ( 3 ) GLOBAL_UNCERTAINTY_ASSIGNED_CONTEXT ( ( #15 ) ) GLOBAL_UNIT_ASSIGNED_CONTEXT ( ( #730, #425, #40 ) ) REPRESENTATION_CONTEXT ( 'NONE', 'WORKASPACE' ) );
#247 = CARTESIAN_POINT ( 'NONE',  ( 0.4999999999999992228, 3.500000000000000444, 3.146446609406726935 ) ) ;
#248 = ADVANCED_FACE ( 'NONE', ( #684 ), #79, .T. ) ;
#249 = DIRECTION ( 'NONE',  ( 0.000000000000000000, -1.000000000000000000, 0.000000000000000000 ) ) ;
#250 = AXIS2_PLACEMENT_3D ( 'NONE', #560, #110, #546 ) ;
#251 = ORIENTED_EDGE ( 'NONE', *, *, #869, .F. ) ;
#252 = CARTESIAN_POINT ( 'NONE',  ( 3.146446609406725159, 4.000000000000000888, 4.336808689942017736E-16 ) ) ;
#253 = ORIENTED_EDGE ( 'NONE', *, *, #522, .T. ) ;
#254 = CARTESIAN_POINT ( 'NONE',  ( 3.146446609406725159, 3.500000000000000888, 3.469446951953614189E-16 ) ) ;
#255 = AXIS2_PLACEMENT_3D ( 'NONE', #620, #774, #550 ) ;
#256 = LINE ( 'NONE', #544, #753 ) ;
#257 = EDGE_CURVE ( 'NONE', #196, #508, #829, .T. ) ;
#258 = ORIENTED_EDGE ( 'NONE', *, *, #663, .F. ) ;
#259 = CARTESIAN_POINT ( 'NONE',  ( -7.806255641895631925E-16, 3.500000000000000444, 3.146446609406726935 ) ) ;
#260 = CARTESIAN_POINT ( 'NONE',  ( 0.2499999999999993061, 3.146446609406725603, 3.750000000000000000 ) ) ;
#261 = EDGE_CURVE ( 'NONE', #174, #439, #605, .T. ) ;
#262 = VECTOR ( 'NONE', #677, 100.0000000000000000 ) ;
#263 = ORIENTED_EDGE ( 'NONE', *, *, #211, .F. ) ;
#264 = DIRECTION ( 'NONE',  ( 1.000000000000000000, 1.734723475976807094E-16, 0.000000000000000000 ) ) ;
#265 = VECTOR ( 'NONE', #293, 100.0000000000000000 ) ;
#266 = AXIS2_PLACEMENT_3D ( 'NONE', #894, #648, #657 ) ;
#267 = ORIENTED_EDGE ( 'NONE', *, *, #522, .F. ) ;
#268 = CARTESIAN_POINT ( 'NONE',  ( 3.500000000000000444, 4.000000000000000888, 3.500000000000000444 ) ) ;
#269 = EDGE_LOOP ( 'NONE', ( #936, #905, #103, #573, #263 ) ) ;
#270 = DIRECTION ( 'NONE',  ( 0.000000000000000000, 4.440892098500630106E-16, -1.000000000000000000 ) ) ;
#271 = EDGE_CURVE ( 'NONE', #280, #320, #383, .T. ) ;
#272 = ORIENTED_EDGE ( 'NONE', *, *, #324, .F. ) ;
#273 = DIRECTION ( 'NONE',  ( 0.000000000000000000, 0.000000000000000000, -1.000000000000000000 ) ) ;
#274 = APPLICATION_PROTOCOL_DEFINITION ( 'draft international standard', 'automotive_design', 1998, #340 ) ;
#275 = CIRCLE ( 'NONE', #183, 0.2500000000000002220 ) ;
#276 = ORIENTED_EDGE ( 'NONE', *, *, #229, .F. ) ;
#277 = DIRECTION ( 'NONE',  ( 1.000000000000000000, 0.000000000000000000, -0.000000000000000000 ) ) ;
#278 = DIRECTION ( 'NONE',  ( 1.000000000000000000, 0.000000000000000000, 0.000000000000000000 ) ) ;
#279 = ADVANCED_FACE ( 'NONE', ( #518 ), #671, .T. ) ;
#280 = VERTEX_POINT ( 'NONE', #980 ) ;
#281 = EDGE_CURVE ( 'NONE', #364, #778, #433, .T. ) ;
#282 = DIRECTION ( 'NONE',  ( -1.734723475976807094E-16, 1.000000000000000000, -0.000000000000000000 ) ) ;
#283 = ORIENTED_EDGE ( 'NONE', *, *, #51, .F. ) ;
#284 = LINE ( 'NONE', #584, #875 ) ;
#285 = ORIENTED_EDGE ( 'NONE', *, *, #765, .F. ) ;
#286 = CARTESIAN_POINT ( 'NONE',  ( -8.673617379884035472E-16, 4.000000000000000000, 3.146446609406727823 ) ) ;
#287 = ORIENTED_EDGE ( 'NONE', *, *, #143, .F. ) ;
#288 = DIRECTION ( 'NONE',  ( -1.000000000000000000, -1.734723475976807094E-16, 1.279215891003198908E-16 ) ) ;
#289 = DIRECTION ( 'NONE',  ( -3.081487911019579554E-31, 1.387778780781446662E-15, -1.000000000000000000 ) ) ;
#290 = EDGE_CURVE ( 'NONE', #43, #896, #915, .T. ) ;
#291 = ORIENTED_EDGE ( 'NONE', *, *, #815, .T. ) ;
#292 = VERTEX_POINT ( 'NONE', #157 ) ;
#293 = DIRECTION ( 'NONE',  ( 0.7071067811865482389, 0.000000000000000000, -0.7071067811865467956 ) ) ;
#294 = AXIS2_PLACEMENT_3D ( 'NONE', #35, #411, #249 ) ;
#295 = LINE ( 'NONE', #444, #649 ) ;
#296 = CARTESIAN_POINT ( 'NONE',  ( 0.000000000000000000, 0.000000000000000000, 0.5000000000000000000 ) ) ;
#297 = DIRECTION ( 'NONE',  ( -1.279215891003199401E-16, 2.220446049250312095E-16, -1.000000000000000000 ) ) ;
#298 = ORIENTED_EDGE ( 'NONE', *, *, #628, .T. ) ;
#299 = DIRECTION ( 'NONE',  ( 1.279215891003199401E-16, -1.000000000000000000, -2.220446049250312341E-16 ) ) ;
#300 = DIRECTION ( 'NONE',  ( 1.000000000000000000, 0.000000000000000000, 1.776356839400250465E-15 ) ) ;
#301 = AXIS2_PLACEMENT_3D ( 'NONE', #140, #329, #84 ) ;
#302 = CARTESIAN_POINT ( 'NONE',  ( 3.499999999999999556, 3.500000000000000444, 3.469446951953614189E-16 ) ) ;
#303 = ADVANCED_FACE ( 'NONE', ( #850 ), #694, .T. ) ;
#304 = ORIENTED_EDGE ( 'NONE', *, *, #290, .T. ) ;
#305 = CARTESIAN_POINT ( 'NONE',  ( 3.146446609406725603, 0.000000000000000000, 3.750000000000000000 ) ) ;
#306 = CARTESIAN_POINT ( 'NONE',  ( 4.000000000000000000, 3.500000000000000444, 0.2500000000000003886 ) ) ;
#307 = CARTESIAN_POINT ( 'NONE',  ( -8.361367154208209209E-16, 3.750000000000000000, 3.146446609406726935 ) ) ;
#308 = AXIS2_PLACEMENT_3D ( 'NONE', #1, #465, #767 ) ;
#309 = ORIENTED_EDGE ( 'NONE', *, *, #228, .F. ) ;
#310 = LINE ( 'NONE', #154, #531 ) ;
#311 = VECTOR ( 'NONE', #234, 100.0000000000000000 ) ;
#312 = FACE_OUTER_BOUND ( 'NONE', #893, .T. ) ;
#313 = VECTOR ( 'NONE', #440, 100.0000000000000000 ) ;
#314 = DIRECTION ( 'NONE',  ( -1.734723475976805615E-16, 1.000000000000000000, 0.000000000000000000 ) ) ;
#315 = ADVANCED_FACE ( 'NONE', ( #599 ), #212, .T. ) ;
#316 = ORIENTED_EDGE ( 'NONE', *, *, #392, .T. ) ;
#317 = DIRECTION ( 'NONE',  ( 0.000000000000000000, 0.000000000000000000, -1.000000000000000000 ) ) ;
#318 = DIRECTION ( 'NONE',  ( -0.000000000000000000, 1.000000000000000000, -0.000000000000000000 ) ) ;
#319 = FACE_OUTER_BOUND ( 'NONE', #504, .T. ) ;
#320 = VERTEX_POINT ( 'NONE', #592 ) ;
#321 = UNCERTAINTY_MEASURE_WITH_UNIT (LENGTH_MEASURE( 1.000000000000000082E-05 ), #198, 'distance_accuracy_value', 'NONE');
#322 = LINE ( 'NONE', #487, #493 ) ;
#323 = CARTESIAN_POINT ( 'NONE',  ( 3.500000000000000444, 4.000000000000000888, 4.000000000000000000 ) ) ;
#324 = EDGE_CURVE ( 'NONE', #904, #144, #68, .T. ) ;
#325 = CIRCLE ( 'NONE', #670, 0.2500000000000000000 ) ;
#326 = LINE ( 'NONE', #243, #207 ) ;
#327 = ORIENTED_EDGE ( 'NONE', *, *, #884, .T. ) ;
#328 = DIRECTION ( 'NONE',  ( 0.7071067811865482389, 0.000000000000000000, -0.7071067811865467956 ) ) ;
#329 = DIRECTION ( 'NONE',  ( -0.000000000000000000, -0.000000000000000000, -1.000000000000000000 ) ) ;
#330 = PRODUCT_DEFINITION ( 'UNKNOWN', '', #696, #66 ) ;
#331 = ORIENTED_EDGE ( 'NONE', *, *, #588, .F. ) ;
#332 = DIRECTION ( 'NONE',  ( -2.220446049250313081E-16, 1.000000000000000000, 1.387778780781446464E-15 ) ) ;
#333 = CARTESIAN_POINT ( 'NONE',  ( 0.2499999999999992228, 3.500000000000000444, 4.000000000000000000 ) ) ;
#334 = ORIENTED_EDGE ( 'NONE', *, *, #968, .T. ) ;
#335 = FACE_OUTER_BOUND ( 'NONE', #62, .T. ) ;
#336 = EDGE_CURVE ( 'NONE', #990, #736, #368, .T. ) ;
#337 = FACE_OUTER_BOUND ( 'NONE', #835, .T. ) ;
#338 = ORIENTED_EDGE ( 'NONE', *, *, #344, .F. ) ;
#339 = LINE ( 'NONE', #642, #551 ) ;
#340 = APPLICATION_CONTEXT ( 'automotive_design' ) ;
#341 = EDGE_LOOP ( 'NONE', ( #516, #417, #92, #334, #891, #472, #975, #456, #122 ) ) ;
#342 = VERTEX_POINT ( 'NONE', #840 ) ;
#343 = FACE_OUTER_BOUND ( 'NONE', #799, .T. ) ;
#344 = EDGE_CURVE ( 'NONE', #193, #280, #511, .T. ) ;
#345 = AXIS2_PLACEMENT_3D ( 'NONE', #515, #54, #827 ) ;
#346 = CARTESIAN_POINT ( 'NONE',  ( 3.146446609406725603, 0.2500000000000000000, 4.000000000000000888 ) ) ;
#347 = EDGE_CURVE ( 'NONE', #452, #824, #148, .T. ) ;
#348 = VERTEX_POINT ( 'NONE', #455 ) ;
#349 = DIRECTION ( 'NONE',  ( -1.387778780781446662E-15, 0.000000000000000000, 1.000000000000000000 ) ) ;
#350 = VERTEX_POINT ( 'NONE', #689 ) ;
#351 = DIRECTION ( 'NONE',  ( 0.000000000000000000, 0.000000000000000000, -1.000000000000000000 ) ) ;
#352 = AXIS2_PLACEMENT_3D ( 'NONE', #302, #297, #90 ) ;
#353 = CIRCLE ( 'NONE', #182, 0.4999999999999997780 ) ;
#354 = VECTOR ( 'NONE', #288, 100.0000000000000000 ) ;
#355 = FACE_OUTER_BOUND ( 'NONE', #942, .T. ) ;
#356 = VERTEX_POINT ( 'NONE', #6 ) ;
#357 = DIRECTION ( 'NONE',  ( 1.000000000000000000, 2.775557561562888984E-15, 0.000000000000000000 ) ) ;
#358 = ORIENTED_EDGE ( 'NONE', *, *, #782, .T. ) ;
#359 = DIRECTION ( 'NONE',  ( 0.000000000000000000, 1.000000000000000000, 4.440892098500624683E-16 ) ) ;
#360 = ORIENTED_EDGE ( 'NONE', *, *, #666, .T. ) ;
#361 = VECTOR ( 'NONE', #467, 100.0000000000000000 ) ;
#362 = CARTESIAN_POINT ( 'NONE',  ( 3.500000000000000444, 4.000000000000000888, 0.2500000000000002220 ) ) ;
#363 = AXIS2_PLACEMENT_3D ( 'NONE', #951, #402, #561 ) ;
#364 = VERTEX_POINT ( 'NONE', #307 ) ;
#365 = CARTESIAN_POINT ( 'NONE',  ( 3.750000000000000000, 3.146446609406727823, 1.579550520519044842E-16 ) ) ;
#366 = DIRECTION ( 'NONE',  ( 0.000000000000000000, 0.000000000000000000, 1.000000000000000000 ) ) ;
#367 = DIRECTION ( 'NONE',  ( 0.000000000000000000, 0.000000000000000000, -1.000000000000000000 ) ) ;
#368 = LINE ( 'NONE', #530, #954 ) ;
#369 = ORIENTED_EDGE ( 'NONE', *, *, #815, .F. ) ;
#370 = CARTESIAN_POINT ( 'NONE',  ( 3.499999999999999556, 3.146446609406726935, 0.5000000000000002220 ) ) ;
#371 = AXIS2_PLACEMENT_3D ( 'NONE', #181, #486, #27 ) ;
#372 = ORIENTED_EDGE ( 'NONE', *, *, #672, .F. ) ;
#373 = DIRECTION ( 'NONE',  ( 0.000000000000000000, 0.000000000000000000, -1.000000000000000000 ) ) ;
#374 = CARTESIAN_POINT ( 'NONE',  ( 4.000000000000000000, 4.000000000000000888, 3.500000000000000444 ) ) ;
#375 = ORIENTED_EDGE ( 'NONE', *, *, #156, .T. ) ;
#376 = CARTESIAN_POINT ( 'NONE',  ( 0.5000000000000000000, 4.000000000000000000, 1.178982612255159435 ) ) ;
#377 = DIRECTION ( 'NONE',  ( 1.000000000000000000, 1.734723475976807094E-16, -1.279215891003198908E-16 ) ) ;
#378 = AXIS2_PLACEMENT_3D ( 'NONE', #454, #201, #128 ) ;
#379 = DIRECTION ( 'NONE',  ( 1.000000000000000000, 1.734723475976807094E-16, -1.279215891003198908E-16 ) ) ;
#380 = EDGE_LOOP ( 'NONE', ( #538, #57, #632, #114 ) ) ;
#381 = FACE_OUTER_BOUND ( 'NONE', #555, .T. ) ;
#382 = CARTESIAN_POINT ( 'NONE',  ( 3.146446609406725159, 3.500000000000000888, 0.5000000000000003331 ) ) ;
#383 = LINE ( 'NONE', #760, #871 ) ;
#384 = EDGE_CURVE ( 'NONE', #144, #364, #609, .T. ) ;
#385 = VECTOR ( 'NONE', #232, 100.0000000000000000 ) ;
#386 = EDGE_CURVE ( 'NONE', #447, #108, #654, .T. ) ;
#387 = ORIENTED_EDGE ( 'NONE', *, *, #563, .F. ) ;
#388 = LINE ( 'NONE', #700, #311 ) ;
#389 = AXIS2_PLACEMENT_3D ( 'NONE', #744, #141, #373 ) ;
#390 = LINE ( 'NONE', #786, #864 ) ;
#391 = CARTESIAN_POINT ( 'NONE',  ( 3.500000000000000444, 3.500000000000000888, 0.2500000000000002220 ) ) ;
#392 = EDGE_CURVE ( 'NONE', #185, #43, #950, .T. ) ;
#393 = ORIENTED_EDGE ( 'NONE', *, *, #61, .F. ) ;
#394 = CARTESIAN_POINT ( 'NONE',  ( 4.000000000000000000, 0.2500000000000000000, 3.146446609406727823 ) ) ;
#395 = DIRECTION ( 'NONE',  ( 0.000000000000000000, 0.000000000000000000, 1.000000000000000000 ) ) ;
#396 = CARTESIAN_POINT ( 'NONE',  ( 3.146446609406725603, 0.000000000000000000, 3.500000000000000888 ) ) ;
#397 = EDGE_CURVE ( 'NONE', #188, #342, #339, .T. ) ;
#398 = ORIENTED_EDGE ( 'NONE', *, *, #500, .T. ) ;
#399 = SURFACE_STYLE_FILL_AREA ( #97 ) ;
#400 = DIRECTION ( 'NONE',  ( -0.000000000000000000, 0.000000000000000000, -1.000000000000000000 ) ) ;
#401 = CARTESIAN_POINT ( 'NONE',  ( 3.500000000000000444, 0.5000000000000000000, 3.146446609406726935 ) ) ;
#402 = DIRECTION ( 'NONE',  ( -0.000000000000000000, 1.000000000000000000, -0.000000000000000000 ) ) ;
#403 = AXIS2_PLACEMENT_3D ( 'NONE', #521, #692, #603 ) ;
#404 = EDGE_LOOP ( 'NONE', ( #76, #479, #585, #606 ) ) ;
#405 = VECTOR ( 'NONE', #646, 100.0000000000000000 ) ;
#406 = CARTESIAN_POINT ( 'NONE',  ( 3.146446609406725159, 3.750000000000000444, 3.781697177629438973E-16 ) ) ;
#407 = EDGE_CURVE ( 'NONE', #356, #949, #476, .T. ) ;
#408 = ADVANCED_FACE ( 'NONE', ( #953 ), #796, .T. ) ;
#409 = DIRECTION ( 'NONE',  ( 0.000000000000000000, 0.000000000000000000, -1.000000000000000000 ) ) ;
#410 = ORIENTED_EDGE ( 'NONE', *, *, #156, .F. ) ;
#411 = DIRECTION ( 'NONE',  ( -1.000000000000000000, -1.279215891003199648E-16, 1.279215891003199155E-16 ) ) ;
#412 = FACE_OUTER_BOUND ( 'NONE', #691, .T. ) ;
#413 = ORIENTED_EDGE ( 'NONE', *, *, #336, .T. ) ;
#414 = FACE_OUTER_BOUND ( 'NONE', #533, .T. ) ;
#415 = EDGE_CURVE ( 'NONE', #741, #462, #167, .T. ) ;
#416 = APPLICATION_PROTOCOL_DEFINITION ( 'draft international standard', 'automotive_design', 1998, #745 ) ;
#417 = ORIENTED_EDGE ( 'NONE', *, *, #228, .T. ) ;
#418 = DIRECTION ( 'NONE',  ( 1.000000000000000000, 0.000000000000000000, 1.387778780781446662E-15 ) ) ;
#419 = AXIS2_PLACEMENT_3D ( 'NONE', #945, #95, #264 ) ;
#420 = ADVANCED_FACE ( 'NONE', ( #22 ), #166, .T. ) ;
#421 = VERTEX_POINT ( 'NONE', #856 ) ;
#422 = DIRECTION ( 'NONE',  ( 1.000000000000000000, 2.220446049250313081E-16, -0.000000000000000000 ) ) ;
#423 = CLOSED_SHELL ( 'NONE', ( #200, #111, #41, #428, #461, #29, #776, #577, #886, #116, #729, #690, #812, #615, #536, #303, #248, #408, #171, #241, #946, #882, #279, #204, #868, #420, #315, #459, #566, #470, #578, #495 ) ) ;
#424 = VECTOR ( 'NONE', #926, 100.0000000000000000 ) ;
#425 =( NAMED_UNIT ( * ) PLANE_ANGLE_UNIT ( ) SI_UNIT ( $, .RADIAN. ) );
#426 = ORIENTED_EDGE ( 'NONE', *, *, #913, .T. ) ;
#427 = CYLINDRICAL_SURFACE ( 'NONE', #133, 0.4999999999999997780 ) ;
#428 = ADVANCED_FACE ( 'NONE', ( #172 ), #718, .F. ) ;
#429 = PRODUCT_CONTEXT ( 'NONE', #745, 'mechanical' ) ;
#430 = CARTESIAN_POINT ( 'NONE',  ( 3.499999999999999556, 3.146446609406726935, 2.602085213965210642E-16 ) ) ;
#431 = ORIENTED_EDGE ( 'NONE', *, *, #36, .T. ) ;
#432 = CARTESIAN_POINT ( 'NONE',  ( 3.750000000000000000, 1.665334536937735008E-15, 0.2499999999999988343 ) ) ;
#433 = CIRCLE ( 'NONE', #919, 0.2500000000000002220 ) ;
#434 =( GEOMETRIC_REPRESENTATION_CONTEXT ( 3 ) GLOBAL_UNCERTAINTY_ASSIGNED_CONTEXT ( ( #321 ) ) GLOBAL_UNIT_ASSIGNED_CONTEXT ( ( #198, #816, #725 ) ) REPRESENTATION_CONTEXT ( 'NONE', 'WORKASPACE' ) );
#435 = EDGE_CURVE ( 'NONE', #783, #292, #99, .T. ) ;
#436 = CIRCLE ( 'NONE', #389, 0.2500000000000002220 ) ;
#437 = ORIENTED_EDGE ( 'NONE', *, *, #137, .F. ) ;
#438 = DIRECTION ( 'NONE',  ( -0.000000000000000000, -1.000000000000000000, -0.000000000000000000 ) ) ;
#439 = VERTEX_POINT ( 'NONE', #401 ) ;
#440 = DIRECTION ( 'NONE',  ( 2.220446049250313081E-16, -1.000000000000000000, 0.000000000000000000 ) ) ;
#441 = ORIENTED_EDGE ( 'NONE', *, *, #435, .T. ) ;
#442 = ORIENTED_EDGE ( 'NONE', *, *, #797, .T. ) ;
#443 = LINE ( 'NONE', #674, #131 ) ;
#444 = CARTESIAN_POINT ( 'NONE',  ( 3.499999999999999556, 3.146446609406726935, 2.602085213965210642E-16 ) ) ;
#445 = LINE ( 'NONE', #517, #738 ) ;
#446 = DIRECTION ( 'NONE',  ( 1.000000000000000000, -0.000000000000000000, -0.000000000000000000 ) ) ;
#447 = VERTEX_POINT ( 'NONE', #568 ) ;
#448 = CARTESIAN_POINT ( 'NONE',  ( 3.500000000000000444, 0.2500000000000002220, 4.000000000000000000 ) ) ;
#449 = LINE ( 'NONE', #306, #948 ) ;
#450 = DIRECTION ( 'NONE',  ( 1.000000000000000000, 0.000000000000000000, 0.000000000000000000 ) ) ;
#451 = CARTESIAN_POINT ( 'NONE',  ( 3.146446609406725159, 3.500000000000000888, 3.469446951953614189E-16 ) ) ;
#452 = VERTEX_POINT ( 'NONE', #254 ) ;
#453 = LINE ( 'NONE', #763, #747 ) ;
#454 = CARTESIAN_POINT ( 'NONE',  ( 0.000000000000000000, 0.5000000000000000000, 0.000000000000000000 ) ) ;
#455 = CARTESIAN_POINT ( 'NONE',  ( 3.146446609406725159, 4.000000000000000888, 0.5000000000000004441 ) ) ;
#456 = ORIENTED_EDGE ( 'NONE', *, *, #7, .F. ) ;
#457 = DIRECTION ( 'NONE',  ( 0.000000000000000000, -2.664535259100375697E-15, 1.000000000000000000 ) ) ;
#458 = DIRECTION ( 'NONE',  ( -1.000000000000000000, -2.220446049250313081E-16, 0.000000000000000000 ) ) ;
#459 = ADVANCED_FACE ( 'NONE', ( #335 ), #985, .T. ) ;
#460 = CARTESIAN_POINT ( 'NONE',  ( 4.000000000000000000, 0.5000000000000000000, 3.500000000000000444 ) ) ;
#461 = ADVANCED_FACE ( 'NONE', ( #800 ), #711, .F. ) ;
#462 = VERTEX_POINT ( 'NONE', #406 ) ;
#463 = DIRECTION ( 'NONE',  ( 1.000000000000000000, 0.000000000000000000, 2.775557561562888984E-15 ) ) ;
#464 = CARTESIAN_POINT ( 'NONE',  ( 1.178982612255159435, 0.5000000000000001110, 4.000000000000000000 ) ) ;
#465 = DIRECTION ( 'NONE',  ( 1.515700369881766799E-15, -1.000000000000000000, -4.440892098500628134E-16 ) ) ;
#466 = ORIENTED_EDGE ( 'NONE', *, *, #161, .T. ) ;
#467 = DIRECTION ( 'NONE',  ( 1.279215891003199648E-16, -4.440892098500625669E-16, 1.000000000000000000 ) ) ;
#468 = LINE ( 'NONE', #780, #733 ) ;
#469 = CIRCLE ( 'NONE', #42, 0.2500000000000002220 ) ;
#470 = ADVANCED_FACE ( 'NONE', ( #319 ), #622, .T. ) ;
#471 = DIRECTION ( 'NONE',  ( 1.279215891003199648E-16, -4.440892098500625669E-16, 1.000000000000000000 ) ) ;
#472 = ORIENTED_EDGE ( 'NONE', *, *, #900, .T. ) ;
#473 = CARTESIAN_POINT ( 'NONE',  ( 0.5000000000000000000, 0.000000000000000000, 0.000000000000000000 ) ) ;
#474 = CARTESIAN_POINT ( 'NONE',  ( -8.361367154208209209E-16, 3.750000000000000000, 3.146446609406727823 ) ) ;
#475 = VECTOR ( 'NONE', #377, 100.0000000000000000 ) ;
#476 = LINE ( 'NONE', #32, #955 ) ;
#477 = CARTESIAN_POINT ( 'NONE',  ( 3.500000000000000444, 3.500000000000000888, 0.2500000000000002220 ) ) ;
#478 = EDGE_CURVE ( 'NONE', #144, #188, #326, .T. ) ;
#479 = ORIENTED_EDGE ( 'NONE', *, *, #653, .F. ) ;
#480 = DIRECTION ( 'NONE',  ( 1.000000000000000000, 2.220446049250313081E-16, -0.000000000000000000 ) ) ;
#481 = DIRECTION ( 'NONE',  ( 2.220446049250313081E-16, -1.000000000000000000, 0.000000000000000000 ) ) ;
#482 = VECTOR ( 'NONE', #545, 100.0000000000000000 ) ;
#483 = CIRCLE ( 'NONE', #52, 0.2500000000000002220 ) ;
#484 = ORIENTED_EDGE ( 'NONE', *, *, #782, .F. ) ;
#485 = AXIS2_PLACEMENT_3D ( 'NONE', #432, #737, #270 ) ;
#486 = DIRECTION ( 'NONE',  ( -0.000000000000000000, 1.000000000000000000, 0.000000000000000000 ) ) ;
#487 = CARTESIAN_POINT ( 'NONE',  ( 0.5000000000000001110, 3.500000000000000444, 4.000000000000000000 ) ) ;
#488 = ORIENTED_EDGE ( 'NONE', *, *, #598, .F. ) ;
#489 = EDGE_CURVE ( 'NONE', #966, #225, #552, .T. ) ;
#490 = AXIS2_PLACEMENT_3D ( 'NONE', #93, #317, #863 ) ;
#491 = DIRECTION ( 'NONE',  ( 0.000000000000000000, 0.000000000000000000, 1.000000000000000000 ) ) ;
#492 = EDGE_LOOP ( 'NONE', ( #38, #575, #579, #138, #513, #699 ) ) ;
#493 = VECTOR ( 'NONE', #625, 100.0000000000000000 ) ;
#494 = CARTESIAN_POINT ( 'NONE',  ( 3.500000000000000444, 0.000000000000000000, 3.146446609406726935 ) ) ;
#495 = ADVANCED_FACE ( 'NONE', ( #104 ), #714, .T. ) ;
#496 = PRESENTATION_LAYER_ASSIGNMENT (  '', '', ( #939 ) ) ;
#497 = ORIENTED_EDGE ( 'NONE', *, *, #563, .T. ) ;
#498 = DIRECTION ( 'NONE',  ( 1.000000000000000000, 1.734723475976807094E-16, -0.000000000000000000 ) ) ;
#499 = AXIS2_PLACEMENT_3D ( 'NONE', #804, #351, #814 ) ;
#500 = EDGE_CURVE ( 'NONE', #825, #862, #571, .T. ) ;
#501 = ORIENTED_EDGE ( 'NONE', *, *, #407, .F. ) ;
#502 = PLANE ( 'NONE',  #823 ) ;
#503 = VECTOR ( 'NONE', #758, 100.0000000000000000 ) ;
#504 = EDGE_LOOP ( 'NONE', ( #660, #604, #267, #151 ) ) ;
#505 = EDGE_CURVE ( 'NONE', #34, #356, #469, .T. ) ;
#506 = CARTESIAN_POINT ( 'NONE',  ( 0.2499999999999992228, 3.500000000000000444, 3.750000000000000000 ) ) ;
#507 = ORIENTED_EDGE ( 'NONE', *, *, #344, .T. ) ;
#508 = VERTEX_POINT ( 'NONE', #268 ) ;
#509 = VERTEX_POINT ( 'NONE', #722 ) ;
#510 = DIRECTION ( 'NONE',  ( 2.602085213965210149E-16, -1.000000000000000000, 0.000000000000000000 ) ) ;
#511 = CIRCLE ( 'NONE', #102, 4.170131892398607931 ) ;
#512 = AXIS2_PLACEMENT_3D ( 'NONE', #391, #861, #702 ) ;
#513 = ORIENTED_EDGE ( 'NONE', *, *, #739, .F. ) ;
#514 = PLANE ( 'NONE',  #403 ) ;
#515 = CARTESIAN_POINT ( 'NONE',  ( 0.5000000000000000000, 0.000000000000000000, 0.000000000000000000 ) ) ;
#516 = ORIENTED_EDGE ( 'NONE', *, *, #28, .F. ) ;
#517 = CARTESIAN_POINT ( 'NONE',  ( 4.000000000000000000, 4.000000000000000888, 0.5000000000000000000 ) ) ;
#518 = FACE_OUTER_BOUND ( 'NONE', #492, .T. ) ;
#519 = EDGE_LOOP ( 'NONE', ( #981, #559, #635, #924, #59 ) ) ;
#520 = ORIENTED_EDGE ( 'NONE', *, *, #715, .F. ) ;
#521 = CARTESIAN_POINT ( 'NONE',  ( 0.000000000000000000, 0.000000000000000000, 4.000000000000000000 ) ) ;
#522 = EDGE_CURVE ( 'NONE', #736, #825, #121, .T. ) ;
#523 = ORIENTED_EDGE ( 'NONE', *, *, #765, .T. ) ;
#524 = CARTESIAN_POINT ( 'NONE',  ( 3.500000000000000444, 3.500000000000000888, 3.500000000000000444 ) ) ;
#525 = DIRECTION ( 'NONE',  ( 1.570092458683773934E-16, -0.7071067811865467956, -0.7071067811865482389 ) ) ;
#526 = EDGE_CURVE ( 'NONE', #342, #858, #44, .T. ) ;
#527 = ORIENTED_EDGE ( 'NONE', *, *, #869, .T. ) ;
#528 = DIRECTION ( 'NONE',  ( 0.7071067811865467956, 0.000000000000000000, 0.7071067811865482389 ) ) ;
#529 = CARTESIAN_POINT ( 'NONE',  ( 3.500000000000000444, 3.500000000000000888, 3.500000000000000444 ) ) ;
#530 = CARTESIAN_POINT ( 'NONE',  ( 0.000000000000000000, 0.2500000000000000000, 4.000000000000000000 ) ) ;
#531 = VECTOR ( 'NONE', #299, 100.0000000000000000 ) ;
#532 = CIRCLE ( 'NONE', #698, 0.5000000000000001110 ) ;
#533 = EDGE_LOOP ( 'NONE', ( #726, #821, #668, #795, #895 ) ) ;
#534 = CARTESIAN_POINT ( 'NONE',  ( 4.000000000000000000, 0.2500000000000000000, 3.146446609406727823 ) ) ;
#535 = DIRECTION ( 'NONE',  ( -1.000000000000000000, 0.000000000000000000, 0.000000000000000000 ) ) ;
#536 = ADVANCED_FACE ( 'NONE', ( #49 ), #879, .T. ) ;
#537 = CARTESIAN_POINT ( 'NONE',  ( 0.2499999999999991673, 3.750000000000000000, 3.146446609406727823 ) ) ;
#538 = ORIENTED_EDGE ( 'NONE', *, *, #569, .F. ) ;
#539 = CARTESIAN_POINT ( 'NONE',  ( 4.000000000000000000, 0.000000000000000000, 0.000000000000000000 ) ) ;
#540 = DIRECTION ( 'NONE',  ( 1.000000000000000000, 0.000000000000000000, 0.000000000000000000 ) ) ;
#541 = CIRCLE ( 'NONE', #801, 0.2500000000000000000 ) ;
#542 = CARTESIAN_POINT ( 'NONE',  ( -7.806255641895631925E-16, 3.500000000000000444, 3.146446609406726935 ) ) ;
#543 = ORIENTED_EDGE ( 'NONE', *, *, #679, .T. ) ;
#544 = CARTESIAN_POINT ( 'NONE',  ( 3.146446609406725603, 0.5000000000000000000, 3.500000000000000888 ) ) ;
#545 = DIRECTION ( 'NONE',  ( 1.279215891003199401E-16, -1.000000000000000000, -2.220446049250312341E-16 ) ) ;
#546 = DIRECTION ( 'NONE',  ( 1.000000000000000000, 2.220446049250313081E-16, 0.000000000000000000 ) ) ;
#547 = AXIS2_PLACEMENT_3D ( 'NONE', #473, #120, #491 ) ;
#548 = ORIENTED_EDGE ( 'NONE', *, *, #397, .T. ) ;
#549 = DIRECTION ( 'NONE',  ( 0.000000000000000000, 0.000000000000000000, -1.000000000000000000 ) ) ;
#550 = DIRECTION ( 'NONE',  ( -1.000000000000000000, 0.000000000000000000, 0.000000000000000000 ) ) ;
#551 = VECTOR ( 'NONE', #790, 100.0000000000000000 ) ;
#552 = LINE ( 'NONE', #177, #941 ) ;
#553 = ORIENTED_EDGE ( 'NONE', *, *, #884, .F. ) ;
#554 = LINE ( 'NONE', #634, #187 ) ;
#555 = EDGE_LOOP ( 'NONE', ( #969, #8, #163, #410, #14, #962, #26, #413, #71 ) ) ;
#556 = VECTOR ( 'NONE', #701, 100.0000000000000000 ) ;
#557 = DIRECTION ( 'NONE',  ( -1.000000000000000000, 0.000000000000000000, 0.000000000000000000 ) ) ;
#558 = DIRECTION ( 'NONE',  ( 1.000000000000000000, -0.000000000000000000, 0.000000000000000000 ) ) ;
#559 = ORIENTED_EDGE ( 'NONE', *, *, #281, .T. ) ;
#560 = CARTESIAN_POINT ( 'NONE',  ( -6.938893903907228378E-16, 3.146446609406725603, 4.000000000000000888 ) ) ;
#561 = DIRECTION ( 'NONE',  ( 0.000000000000000000, 0.000000000000000000, -1.000000000000000000 ) ) ;
#562 = AXIS2_PLACEMENT_3D ( 'NONE', #542, #289, #13 ) ;
#563 = EDGE_CURVE ( 'NONE', #350, #911, #841, .T. ) ;
#564 = AXIS2_PLACEMENT_3D ( 'NONE', #607, #989, #917 ) ;
#565 = VERTEX_POINT ( 'NONE', #197 ) ;
#566 = ADVANCED_FACE ( 'NONE', ( #343 ), #662, .T. ) ;
#567 = AXIS2_PLACEMENT_3D ( 'NONE', #506, #580, #890 ) ;
#568 = CARTESIAN_POINT ( 'NONE',  ( 3.500000000000000444, 3.750000000000001332, 4.579669976578773687E-16 ) ) ;
#569 = EDGE_CURVE ( 'NONE', #132, #188, #284, .T. ) ;
#570 = ORIENTED_EDGE ( 'NONE', *, *, #572, .T. ) ;
#571 = LINE ( 'NONE', #967, #902 ) ;
#572 = EDGE_CURVE ( 'NONE', #929, #193, #652, .T. ) ;
#573 = ORIENTED_EDGE ( 'NONE', *, *, #806, .T. ) ;
#574 = DIRECTION ( 'NONE',  ( 1.515700369881766602E-15, -1.000000000000000000, -4.440892098500628134E-16 ) ) ;
#575 = ORIENTED_EDGE ( 'NONE', *, *, #746, .T. ) ;
#576 = DIRECTION ( 'NONE',  ( -1.000000000000000000, 0.000000000000000000, 0.000000000000000000 ) ) ;
#577 = ADVANCED_FACE ( 'NONE', ( #119 ), #427, .T. ) ;
#578 = ADVANCED_FACE ( 'NONE', ( #123 ), #53, .T. ) ;
#579 = ORIENTED_EDGE ( 'NONE', *, *, #37, .F. ) ;
#580 = DIRECTION ( 'NONE',  ( 0.000000000000000000, 1.000000000000000000, -0.000000000000000000 ) ) ;
#581 = ORIENTED_EDGE ( 'NONE', *, *, #663, .T. ) ;
#582 = CARTESIAN_POINT ( 'NONE',  ( -6.938893903907228378E-16, 4.000000000000000000, 0.000000000000000000 ) ) ;
#583 = EDGE_LOOP ( 'NONE', ( #772, #527, #543, #398, #466, #291 ) ) ;
#584 = CARTESIAN_POINT ( 'NONE',  ( 0.4999999999999993339, 3.146446609406725603, 3.500000000000000888 ) ) ;
#585 = ORIENTED_EDGE ( 'NONE', *, *, #933, .F. ) ;
#586 = ORIENTED_EDGE ( 'NONE', *, *, #569, .T. ) ;
#587 = DIRECTION ( 'NONE',  ( 0.7071067811865482389, 0.000000000000000000, -0.7071067811865467956 ) ) ;
#588 = EDGE_CURVE ( 'NONE', #196, #911, #532, .T. ) ;
#589 = CARTESIAN_POINT ( 'NONE',  ( 3.750000000000000000, 3.146446609406727823, 2.282281241214411284E-16 ) ) ;
#590 = EDGE_LOOP ( 'NONE', ( #602, #870, #523, #338, #645, #48 ) ) ;
#591 = DIRECTION ( 'NONE',  ( 1.000000000000000000, 0.000000000000000000, 0.000000000000000000 ) ) ;
#592 = CARTESIAN_POINT ( 'NONE',  ( 4.000000000000000000, 0.5000000000000000000, 3.146446609406727823 ) ) ;
#593 = ORIENTED_EDGE ( 'NONE', *, *, #598, .T. ) ;
#594 = VERTEX_POINT ( 'NONE', #127 ) ;
#595 = CARTESIAN_POINT ( 'NONE',  ( 3.499999999999999556, 3.146446609406726935, 2.602085213965210642E-16 ) ) ;
#596 = DIRECTION ( 'NONE',  ( 1.000000000000000000, 1.515700369881766405E-15, -1.279215891003196443E-16 ) ) ;
#597 = CARTESIAN_POINT ( 'NONE',  ( 3.500000000000000444, 3.500000000000000888, 3.500000000000000444 ) ) ;
#598 = EDGE_CURVE ( 'NONE', #651, #904, #732, .T. ) ;
#599 = FACE_OUTER_BOUND ( 'NONE', #404, .T. ) ;
#600 = AXIS2_PLACEMENT_3D ( 'NONE', #582, #282, #300 ) ;
#601 = AXIS2_PLACEMENT_3D ( 'NONE', #705, #540, #938 ) ;
#602 = ORIENTED_EDGE ( 'NONE', *, *, #7, .T. ) ;
#603 = DIRECTION ( 'NONE',  ( 1.000000000000000000, 0.000000000000000000, -0.000000000000000000 ) ) ;
#604 = ORIENTED_EDGE ( 'NONE', *, *, #500, .F. ) ;
#605 = LINE ( 'NONE', #928, #385 ) ;
#606 = ORIENTED_EDGE ( 'NONE', *, *, #100, .F. ) ;
#607 = CARTESIAN_POINT ( 'NONE',  ( 3.500000000000000444, 0.000000000000000000, 3.500000000000000444 ) ) ;
#608 = CARTESIAN_POINT ( 'NONE',  ( 3.500000000000000444, 0.5000000000000000000, 3.146446609406726935 ) ) ;
#609 = LINE ( 'NONE', #259, #643 ) ;
#610 = VECTOR ( 'NONE', #223, 100.0000000000000000 ) ;
#611 = CIRCLE ( 'NONE', #227, 0.2500000000000002220 ) ;
#612 = VECTOR ( 'NONE', #727, 100.0000000000000000 ) ;
#613 = ORIENTED_EDGE ( 'NONE', *, *, #392, .F. ) ;
#614 = CARTESIAN_POINT ( 'NONE',  ( 3.750000000000000000, 0.2500000000000000000, 3.146446609406727823 ) ) ;
#615 = ADVANCED_FACE ( 'NONE', ( #414 ), #502, .F. ) ;
#616 = CARTESIAN_POINT ( 'NONE',  ( 0.2500000000000000000, 5.551115123125782702E-17, 3.750000000000000000 ) ) ;
#617 = DIRECTION ( 'NONE',  ( -0.000000000000000000, -0.000000000000000000, 1.000000000000000000 ) ) ;
#618 = ORIENTED_EDGE ( 'NONE', *, *, #229, .T. ) ;
#619 = CARTESIAN_POINT ( 'NONE',  ( 4.000000000000000000, 3.146446609406727823, 0.5000000000000000000 ) ) ;
#620 = CARTESIAN_POINT ( 'NONE',  ( 0.000000000000000000, 0.000000000000000000, 0.5000000000000000000 ) ) ;
#621 = CIRCLE ( 'NONE', #490, 0.2500000000000000000 ) ;
#622 = CYLINDRICAL_SURFACE ( 'NONE', #777, 0.2500000000000002220 ) ;
#623 = VECTOR ( 'NONE', #549, 100.0000000000000000 ) ;
#624 = ORIENTED_EDGE ( 'NONE', *, *, #271, .T. ) ;
#625 = DIRECTION ( 'NONE',  ( -1.000000000000000000, -1.734723475976807094E-16, 0.000000000000000000 ) ) ;
#626 = FACE_OUTER_BOUND ( 'NONE', #629, .T. ) ;
#627 = DIRECTION ( 'NONE',  ( 1.000000000000000000, 2.220446049250313081E-16, -0.000000000000000000 ) ) ;
#628 = EDGE_CURVE ( 'NONE', #896, #762, #275, .T. ) ;
#629 = EDGE_LOOP ( 'NONE', ( #125, #720, #4, #272, #488, #581 ) ) ;
#630 = CARTESIAN_POINT ( 'NONE',  ( 3.146446609406725159, 3.500000000000000888, 3.469446951953614189E-16 ) ) ;
#631 = PLANE ( 'NONE',  #255 ) ;
#632 = ORIENTED_EDGE ( 'NONE', *, *, #324, .T. ) ;
#633 = CARTESIAN_POINT ( 'NONE',  ( 3.500000000000000444, 3.500000000000000888, 3.469446951953614189E-16 ) ) ;
#634 = CARTESIAN_POINT ( 'NONE',  ( 3.750000000000000000, 0.000000000000000000, 3.500000000000000444 ) ) ;
#635 = ORIENTED_EDGE ( 'NONE', *, *, #28, .T. ) ;
#636 = CIRCLE ( 'NONE', #217, 0.2500000000000002220 ) ;
#637 = DIRECTION ( 'NONE',  ( 0.000000000000000000, 1.000000000000000000, 4.440892098500620245E-16 ) ) ;
#638 = EDGE_CURVE ( 'NONE', #174, #594, #194, .T. ) ;
#639 = DIRECTION ( 'NONE',  ( -0.7071067811865466846, -0.7071067811865483499, -2.235642686237599192E-16 ) ) ;
#640 = EDGE_CURVE ( 'NONE', #508, #789, #231, .T. ) ;
#641 = ORIENTED_EDGE ( 'NONE', *, *, #257, .F. ) ;
#642 = CARTESIAN_POINT ( 'NONE',  ( 0.4999999999999992228, 3.500000000000000444, 3.146446609406726935 ) ) ;
#643 = VECTOR ( 'NONE', #332, 100.0000000000000000 ) ;
#644 = VECTOR ( 'NONE', #706, 100.0000000000000000 ) ;
#645 = ORIENTED_EDGE ( 'NONE', *, *, #126, .F. ) ;
#646 = DIRECTION ( 'NONE',  ( -1.000000000000000000, 0.000000000000000000, 0.000000000000000000 ) ) ;
#647 = EDGE_LOOP ( 'NONE', ( #497, #331, #553, #731 ) ) ;
#648 = DIRECTION ( 'NONE',  ( 0.000000000000000000, -1.000000000000000000, 0.000000000000000000 ) ) ;
#649 = VECTOR ( 'NONE', #596, 100.0000000000000000 ) ;
#650 = SHAPE_DEFINITION_REPRESENTATION ( #761, #721 ) ;
#651 = VERTEX_POINT ( 'NONE', #683 ) ;
#652 = LINE ( 'NONE', #192, #405 ) ;
#653 = EDGE_CURVE ( 'NONE', #713, #741, #822, .T. ) ;
#654 = CIRCLE ( 'NONE', #224, 0.2500000000000002220 ) ;
#655 = VECTOR ( 'NONE', #221, 100.0000000000000000 ) ;
#656 = ORIENTED_EDGE ( 'NONE', *, *, #281, .F. ) ;
#657 = DIRECTION ( 'NONE',  ( 0.000000000000000000, -0.000000000000000000, -1.000000000000000000 ) ) ;
#658 = AXIS2_PLACEMENT_3D ( 'NONE', #963, #203, #958 ) ;
#659 = CARTESIAN_POINT ( 'NONE',  ( 0.000000000000000000, 0.000000000000000000, 0.000000000000000000 ) ) ;
#660 = ORIENTED_EDGE ( 'NONE', *, *, #851, .F. ) ;
#661 = ORIENTED_EDGE ( 'NONE', *, *, #855, .F. ) ;
#662 = CYLINDRICAL_SURFACE ( 'NONE', #485, 0.2500000000000000000 ) ;
#663 = EDGE_CURVE ( 'NONE', #651, #350, #901, .T. ) ;
#664 = AXIS2_PLACEMENT_3D ( 'NONE', #175, #409, #24 ) ;
#665 = ORIENTED_EDGE ( 'NONE', *, *, #640, .F. ) ;
#666 = EDGE_CURVE ( 'NONE', #82, #348, #445, .T. ) ;
#667 = EDGE_LOOP ( 'NONE', ( #287, #46, #23, #988 ) ) ;
#668 = ORIENTED_EDGE ( 'NONE', *, *, #638, .F. ) ;
#669 = DIRECTION ( 'NONE',  ( -0.000000000000000000, -0.000000000000000000, -1.000000000000000000 ) ) ;
#670 = AXIS2_PLACEMENT_3D ( 'NONE', #184, #558, #716 ) ;
#671 = PLANE ( 'NONE',  #352 ) ;
#672 = EDGE_CURVE ( 'NONE', #911, #966, #752, .T. ) ;
#673 = ORIENTED_EDGE ( 'NONE', *, *, #715, .T. ) ;
#674 = CARTESIAN_POINT ( 'NONE',  ( -6.938893903907228378E-16, 3.146446609406725603, 3.500000000000000888 ) ) ;
#675 = DIRECTION ( 'NONE',  ( 0.000000000000000000, -1.000000000000000000, 0.000000000000000000 ) ) ;
#676 = DIRECTION ( 'NONE',  ( 0.000000000000000000, 0.000000000000000000, 1.000000000000000000 ) ) ;
#677 = DIRECTION ( 'NONE',  ( -0.000000000000000000, -1.000000000000000000, -0.000000000000000000 ) ) ;
#678 = VECTOR ( 'NONE', #39, 100.0000000000000000 ) ;
#679 = EDGE_CURVE ( 'NONE', #762, #825, #436, .T. ) ;
#680 = ORIENTED_EDGE ( 'NONE', *, *, #640, .T. ) ;
#681 = PLANE ( 'NONE',  #12 ) ;
#682 = CARTESIAN_POINT ( 'NONE',  ( -7.806255641895631925E-16, 3.500000000000000444, 3.500000000000000444 ) ) ;
#683 = CARTESIAN_POINT ( 'NONE',  ( -6.938893903907228378E-16, 3.146446609406725603, 3.750000000000000000 ) ) ;
#684 = FACE_OUTER_BOUND ( 'NONE', #380, .T. ) ;
#685 = VECTOR ( 'NONE', #844, 100.0000000000000000 ) ;
#686 = ORIENTED_EDGE ( 'NONE', *, *, #109, .F. ) ;
#687 = FACE_OUTER_BOUND ( 'NONE', #647, .T. ) ;
#688 = CARTESIAN_POINT ( 'NONE',  ( 3.750000000000000444, 3.500000000000000888, 3.149642979202816804E-16 ) ) ;
#689 = CARTESIAN_POINT ( 'NONE',  ( -7.806255641895631925E-16, 3.500000000000000444, 3.750000000000000444 ) ) ;
#690 = ADVANCED_FACE ( 'NONE', ( #60 ), #991, .F. ) ;
#691 = EDGE_LOOP ( 'NONE', ( #613, #865, #96, #520 ) ) ;
#692 = DIRECTION ( 'NONE',  ( 0.000000000000000000, 0.000000000000000000, 1.000000000000000000 ) ) ;
#693 = CARTESIAN_POINT ( 'NONE',  ( 3.146446609406725603, 0.000000000000000000, 4.000000000000000888 ) ) ;
#694 = PLANE ( 'NONE',  #562 ) ;
#695 = VECTOR ( 'NONE', #219, 100.0000000000000000 ) ;
#696 = PRODUCT_DEFINITION_FORMATION_WITH_SPECIFIED_SOURCE ( 'ANY', '', #750, .NOT_KNOWN. ) ;
#697 = VECTOR ( 'NONE', #756, 100.0000000000000000 ) ;
#698 = AXIS2_PLACEMENT_3D ( 'NONE', #189, #422, #510 ) ;
#699 = ORIENTED_EDGE ( 'NONE', *, *, #100, .T. ) ;
#700 = CARTESIAN_POINT ( 'NONE',  ( 4.000000000000000000, 0.000000000000000000, 3.146446609406727823 ) ) ;
#701 = DIRECTION ( 'NONE',  ( 0.000000000000000000, 1.000000000000000000, -0.000000000000000000 ) ) ;
#702 = DIRECTION ( 'NONE',  ( 1.331451502179465785E-33, 1.000000000000000000, 4.440892098500625176E-16 ) ) ;
#703 = ORIENTED_EDGE ( 'NONE', *, *, #50, .T. ) ;
#704 = DIRECTION ( 'NONE',  ( 0.000000000000000000, -1.000000000000000000, 0.000000000000000000 ) ) ;
#705 = CARTESIAN_POINT ( 'NONE',  ( 3.500000000000000444, 3.500000000000000888, 3.500000000000000444 ) ) ;
#706 = DIRECTION ( 'NONE',  ( -0.000000000000000000, -0.000000000000000000, 1.000000000000000000 ) ) ;
#707 = ORIENTED_EDGE ( 'NONE', *, *, #766, .T. ) ;
#708 = SURFACE_SIDE_STYLE ('',( #399 ) ) ;
#709 = FACE_OUTER_BOUND ( 'NONE', #220, .T. ) ;
#710 = EDGE_CURVE ( 'NONE', #82, #421, #873, .T. ) ;
#711 = SPHERICAL_SURFACE ( 'NONE', #371, 4.200000000000000178 ) ;
#712 = LINE ( 'NONE', #859, #361 ) ;
#713 = VERTEX_POINT ( 'NONE', #362 ) ;
#714 = CYLINDRICAL_SURFACE ( 'NONE', #499, 0.2500000000000002220 ) ;
#715 = EDGE_CURVE ( 'NONE', #43, #508, #353, .T. ) ;
#716 = DIRECTION ( 'NONE',  ( 0.000000000000000000, 0.000000000000000000, -1.000000000000000000 ) ) ;
#717 = ORIENTED_EDGE ( 'NONE', *, *, #51, .T. ) ;
#718 = PLANE ( 'NONE',  #419 ) ;
#719 = CYLINDRICAL_SURFACE ( 'NONE', #664, 0.5000000000000001110 ) ;
#720 = ORIENTED_EDGE ( 'NONE', *, *, #137, .T. ) ;
#721 = ADVANCED_BREP_SHAPE_REPRESENTATION ( 'SM_PuzzleCube_Corner_Shell', ( #973, #872 ), #434 ) ;
#722 = CARTESIAN_POINT ( 'NONE',  ( -8.361367154208210195E-16, 3.750000000000000444, 3.500000000000000444 ) ) ;
#723 = ORIENTED_EDGE ( 'NONE', *, *, #851, .T. ) ;
#724 = CARTESIAN_POINT ( 'NONE',  ( 3.750000000000000000, 0.2500000000000000000, 3.500000000000000444 ) ) ;
#725 =( NAMED_UNIT ( * ) SI_UNIT ( $, .STERADIAN. ) SOLID_ANGLE_UNIT ( ) );
#726 = ORIENTED_EDGE ( 'NONE', *, *, #797, .F. ) ;
#727 = DIRECTION ( 'NONE',  ( 0.000000000000000000, 0.000000000000000000, -1.000000000000000000 ) ) ;
#728 = CIRCLE ( 'NONE', #301, 1.280624847486570017 ) ;
#729 = ADVANCED_FACE ( 'NONE', ( #147 ), #74, .T. ) ;
#730 =( LENGTH_UNIT ( ) NAMED_UNIT ( * ) SI_UNIT ( .CENTI., .METRE. ) );
#731 = ORIENTED_EDGE ( 'NONE', *, *, #81, .F. ) ;
#732 = LINE ( 'NONE', #115, #612 ) ;
#733 = VECTOR ( 'NONE', #395, 100.0000000000000000 ) ;
#734 = CIRCLE ( 'NONE', #920, 1.280624847486570017 ) ;
#735 = PLANE ( 'NONE',  #345 ) ;
#736 = VERTEX_POINT ( 'NONE', #448 ) ;
#737 = DIRECTION ( 'NONE',  ( 0.000000000000000000, -1.000000000000000000, -4.440892098500625176E-16 ) ) ;
#739 = EDGE_CURVE ( 'NONE', #462, #452, #310, .T. ) ;
#738 = VECTOR ( 'NONE', #828, 100.0000000000000000 ) ;
#740 = EDGE_CURVE ( 'NONE', #899, #594, #611, .T. ) ;
#741 = VERTEX_POINT ( 'NONE', #831 ) ;
#742 = PLANE ( 'NONE',  #195 ) ;
#743 = EDGE_LOOP ( 'NONE', ( #748, #755, #593, #707, #283 ) ) ;
#744 = CARTESIAN_POINT ( 'NONE',  ( 3.500000000000000444, 0.000000000000000000, 3.500000000000000444 ) ) ;
#745 = APPLICATION_CONTEXT ( 'automotive_design' ) ;
#746 = EDGE_CURVE ( 'NONE', #108, #34, #773, .T. ) ;
#747 = VECTOR ( 'NONE', #77, 100.0000000000000142 ) ;
#748 = ORIENTED_EDGE ( 'NONE', *, *, #489, .F. ) ;
#749 = CARTESIAN_POINT ( 'NONE',  ( 3.500000000000000444, 3.500000000000000888, 4.000000000000000000 ) ) ;
#750 = PRODUCT ( 'SM_PuzzleCube_Corner_Shell', 'SM_PuzzleCube_Corner_Shell', '', ( #429 ) ) ;
#751 = LINE ( 'NONE', #286, #910 ) ;
#752 = LINE ( 'NONE', #218, #313 ) ;
#753 = VECTOR ( 'NONE', #328, 100.0000000000000000 ) ;
#754 = DIRECTION ( 'NONE',  ( 0.000000000000000000, 1.000000000000000000, 2.775557561562888984E-15 ) ) ;
#755 = ORIENTED_EDGE ( 'NONE', *, *, #888, .T. ) ;
#756 = DIRECTION ( 'NONE',  ( 1.279215891003199648E-16, -4.440892098500625669E-16, 1.000000000000000000 ) ) ;
#757 = CIRCLE ( 'NONE', #547, 4.170131892398607931 ) ;
#758 = DIRECTION ( 'NONE',  ( 0.000000000000000000, 0.000000000000000000, -1.000000000000000000 ) ) ;
#759 = DIRECTION ( 'NONE',  ( 1.000000000000000000, 0.000000000000000000, 1.387778780781446464E-15 ) ) ;
#760 = CARTESIAN_POINT ( 'NONE',  ( 4.000000000000000000, 0.5000000000000000000, 4.000000000000000000 ) ) ;
#761 = PRODUCT_DEFINITION_SHAPE ( 'NONE', 'NONE',  #330 ) ;
#762 = VERTEX_POINT ( 'NONE', #215 ) ;
#763 = CARTESIAN_POINT ( 'NONE',  ( 3.146446609406725159, 3.500000000000000888, 0.5000000000000003331 ) ) ;
#764 = CARTESIAN_POINT ( 'NONE',  ( 0.4999999999999993339, 3.146446609406725603, 4.000000000000000888 ) ) ;
#765 = EDGE_CURVE ( 'NONE', #421, #280, #734, .T. ) ;
#766 = EDGE_CURVE ( 'NONE', #904, #132, #443, .T. ) ;
#767 = DIRECTION ( 'NONE',  ( 1.000000000000000000, 1.515700369881766799E-15, 0.000000000000000000 ) ) ;
#768 = ORIENTED_EDGE ( 'NONE', *, *, #956, .F. ) ;
#769 = DIRECTION ( 'NONE',  ( 1.000000000000000000, 2.220446049250313081E-16, -0.000000000000000000 ) ) ;
#770 = CARTESIAN_POINT ( 'NONE',  ( 3.500000000000000444, 0.000000000000000000, 3.146446609406726935 ) ) ;
#771 = CARTESIAN_POINT ( 'NONE',  ( -6.938893903907228378E-16, 3.146446609406725603, 3.500000000000000888 ) ) ;
#772 = ORIENTED_EDGE ( 'NONE', *, *, #638, .T. ) ;
#773 = LINE ( 'NONE', #365, #965 ) ;
#774 = DIRECTION ( 'NONE',  ( -0.000000000000000000, 0.000000000000000000, -1.000000000000000000 ) ) ;
#775 = CARTESIAN_POINT ( 'NONE',  ( -6.938893903907228378E-16, 3.146446609406725603, 3.500000000000000888 ) ) ;
#776 = ADVANCED_FACE ( 'NONE', ( #381 ), #514, .T. ) ;
#777 = AXIS2_PLACEMENT_3D ( 'NONE', #934, #557, #866 ) ;
#778 = VERTEX_POINT ( 'NONE', #63 ) ;
#779 = CARTESIAN_POINT ( 'NONE',  ( 4.000000000000000000, 0.2500000000000000000, 3.500000000000000444 ) ) ;
#780 = CARTESIAN_POINT ( 'NONE',  ( 0.2499999999999991396, 4.000000000000000000, 3.500000000000000444 ) ) ;
#781 = CARTESIAN_POINT ( 'NONE',  ( 0.2499999999999991673, 3.750000000000000000, 4.000000000000000000 ) ) ;
#782 = EDGE_CURVE ( 'NONE', #896, #899, #925, .T. ) ;
#783 = VERTEX_POINT ( 'NONE', #72 ) ;
#784 = FILL_AREA_STYLE_COLOUR ( '', #64 ) ;
#785 = AXIS2_PLACEMENT_3D ( 'NONE', #216, #675, #983 ) ;
#786 = CARTESIAN_POINT ( 'NONE',  ( 0.5000000000000000000, 4.000000000000000000, 4.000000000000000000 ) ) ;
#787 = CARTESIAN_POINT ( 'NONE',  ( 4.000000000000000000, 3.500000000000000888, 4.000000000000000000 ) ) ;
#788 = PLANE ( 'NONE',  #117 ) ;
#789 = VERTEX_POINT ( 'NONE', #749 ) ;
#790 = DIRECTION ( 'NONE',  ( -2.220446049250313081E-16, 1.000000000000000000, 1.387778780781446464E-15 ) ) ;
#791 = VECTOR ( 'NONE', #845, 100.0000000000000000 ) ;
#792 = AXIS2_PLACEMENT_3D ( 'NONE', #296, #669, #984 ) ;
#793 = PLANE ( 'NONE',  #113 ) ;
#794 = AXIS2_PLACEMENT_3D ( 'NONE', #597, #591, #908 ) ;
#795 = ORIENTED_EDGE ( 'NONE', *, *, #261, .T. ) ;
#796 = PLANE ( 'NONE',  #250 ) ;
#797 = EDGE_CURVE ( 'NONE', #899, #320, #388, .T. ) ;
#798 = DIRECTION ( 'NONE',  ( -1.000000000000000000, -1.279215891003199648E-16, 1.279215891003199155E-16 ) ) ;
#799 = EDGE_LOOP ( 'NONE', ( #809, #168, #431, #803 ) ) ;
#800 = FACE_OUTER_BOUND ( 'NONE', #590, .T. ) ;
#801 = AXIS2_PLACEMENT_3D ( 'NONE', #260, #169, #33 ) ;
#802 = AXIS2_PLACEMENT_3D ( 'NONE', #477, #107, #930 ) ;
#803 = ORIENTED_EDGE ( 'NONE', *, *, #50, .F. ) ;
#804 = CARTESIAN_POINT ( 'NONE',  ( 3.750000000000000000, 0.2500000000000000000, 3.500000000000000444 ) ) ;
#805 = AXIS2_PLACEMENT_3D ( 'NONE', #781, #18, #940 ) ;
#806 = EDGE_CURVE ( 'NONE', #452, #158, #159, .T. ) ;
#807 = ORIENTED_EDGE ( 'NONE', *, *, #526, .T. ) ;
#808 = DIRECTION ( 'NONE',  ( -1.734723475976806355E-16, 1.000000000000000000, 0.000000000000000000 ) ) ;
#809 = ORIENTED_EDGE ( 'NONE', *, *, #505, .F. ) ;
#810 = CARTESIAN_POINT ( 'NONE',  ( 3.500000000000000444, 0.000000000000000000, 3.146446609406726935 ) ) ;
#811 = CIRCLE ( 'NONE', #80, 0.4999999999999997780 ) ;
#812 = ADVANCED_FACE ( 'NONE', ( #982 ), #681, .F. ) ;
#813 = ORIENTED_EDGE ( 'NONE', *, *, #933, .T. ) ;
#814 = DIRECTION ( 'NONE',  ( -1.000000000000000000, 0.000000000000000000, 0.000000000000000000 ) ) ;
#815 = EDGE_CURVE ( 'NONE', #783, #174, #897, .T. ) ;
#816 =( NAMED_UNIT ( * ) PLANE_ANGLE_UNIT ( ) SI_UNIT ( $, .RADIAN. ) );
#817 = ORIENTED_EDGE ( 'NONE', *, *, #888, .F. ) ;
#818 = AXIS2_PLACEMENT_3D ( 'NONE', #921, #379, #314 ) ;
#819 = VECTOR ( 'NONE', #826, 100.0000000000000000 ) ;
#820 = CARTESIAN_POINT ( 'NONE',  ( 4.000000000000000000, 3.500000000000000888, 3.500000000000000444 ) ) ;
#821 = ORIENTED_EDGE ( 'NONE', *, *, #740, .T. ) ;
#822 = LINE ( 'NONE', #979, #354 ) ;
#823 = AXIS2_PLACEMENT_3D ( 'NONE', #494, #349, #418 ) ;
#824 = VERTEX_POINT ( 'NONE', #595 ) ;
#825 = VERTEX_POINT ( 'NONE', #906 ) ;
#826 = DIRECTION ( 'NONE',  ( -0.000000000000000000, 1.000000000000000000, -0.000000000000000000 ) ) ;
#827 = DIRECTION ( 'NONE',  ( -0.000000000000000000, 0.000000000000000000, 1.000000000000000000 ) ) ;
#828 = DIRECTION ( 'NONE',  ( 1.000000000000000000, -0.000000000000000000, -0.000000000000000000 ) ) ;
#829 = LINE ( 'NONE', #374, #791 ) ;
#830 = ORIENTED_EDGE ( 'NONE', *, *, #211, .T. ) ;
#831 = CARTESIAN_POINT ( 'NONE',  ( 3.146446609406725159, 4.000000000000000888, 0.2500000000000004996 ) ) ;
#832 = FACE_OUTER_BOUND ( 'NONE', #838, .T. ) ;
#833 = DIRECTION ( 'NONE',  ( 1.000000000000000000, 0.000000000000000000, 0.000000000000000000 ) ) ;
#834 = DIRECTION ( 'NONE',  ( 0.000000000000000000, 1.000000000000000000, 0.000000000000000000 ) ) ;
#835 = EDGE_LOOP ( 'NONE', ( #661, #180, #238, #176 ) ) ;
#836 = CARTESIAN_POINT ( 'NONE',  ( 3.146446609406725603, 0.2500000000000000000, 3.750000000000000000 ) ) ;
#837 = EDGE_CURVE ( 'NONE', #990, #929, #226, .T. ) ;
#838 = EDGE_LOOP ( 'NONE', ( #501, #703, #316, #304, #358, #442, #883, #285, #889 ) ) ;
#839 = AXIS2_PLACEMENT_3D ( 'NONE', #67, #450, #367 ) ;
#840 = CARTESIAN_POINT ( 'NONE',  ( 0.5000000000000000000, 4.000000000000000000, 3.146446609406727823 ) ) ;
#841 = CIRCLE ( 'NONE', #567, 0.2500000000000002220 ) ;
#842 = ORIENTED_EDGE ( 'NONE', *, *, #923, .F. ) ;
#843 = DIRECTION ( 'NONE',  ( -1.000000000000000000, -0.000000000000000000, -0.000000000000000000 ) ) ;
#844 = DIRECTION ( 'NONE',  ( -0.000000000000000000, -0.000000000000000000, -1.000000000000000000 ) ) ;
#845 = DIRECTION ( 'NONE',  ( 1.000000000000000000, 1.734723475976807094E-16, -0.000000000000000000 ) ) ;
#846 = EDGE_LOOP ( 'NONE', ( #205, #484, #298, #251 ) ) ;
#847 = CARTESIAN_POINT ( 'NONE',  ( 3.146446609406725159, 3.500000000000000888, 3.469446951953614189E-16 ) ) ;
#848 = LINE ( 'NONE', #474, #685 ) ;
#849 = EDGE_CURVE ( 'NONE', #129, #949, #145, .T. ) ;
#850 = FACE_OUTER_BOUND ( 'NONE', #519, .T. ) ;
#851 = EDGE_CURVE ( 'NONE', #862, #990, #483, .T. ) ;
#852 = ORIENTED_EDGE ( 'NONE', *, *, #70, .F. ) ;
#853 = DIRECTION ( 'NONE',  ( -1.000000000000000000, -2.220446049250313081E-16, 0.000000000000000000 ) ) ;
#854 = CARTESIAN_POINT ( 'NONE',  ( 0.4999999999999993339, 3.146446609406725603, 4.000000000000000888 ) ) ;
#855 = EDGE_CURVE ( 'NONE', #158, #129, #453, .T. ) ;
#856 = CARTESIAN_POINT ( 'NONE',  ( 4.000000000000000000, 1.178982612255159657, 0.5000000000000000000 ) ) ;
#857 = AXIS2_PLACEMENT_3D ( 'NONE', #961, #277, #885 ) ;
#858 = VERTEX_POINT ( 'NONE', #376 ) ;
#859 = CARTESIAN_POINT ( 'NONE',  ( 3.146446609406725159, 4.000000000000000888, 4.336808689942017736E-16 ) ) ;
#860 = SPHERICAL_SURFACE ( 'NONE', #601, 0.5000000000000000000 ) ;
#861 = DIRECTION ( 'NONE',  ( -1.279215891003199648E-16, 4.440892098500625176E-16, -1.000000000000000000 ) ) ;
#862 = VERTEX_POINT ( 'NONE', #305 ) ;
#863 = DIRECTION ( 'NONE',  ( -1.000000000000000000, 0.000000000000000000, 0.000000000000000000 ) ) ;
#864 = VECTOR ( 'NONE', #318, 100.0000000000000000 ) ;
#865 = ORIENTED_EDGE ( 'NONE', *, *, #927, .T. ) ;
#866 = DIRECTION ( 'NONE',  ( 0.000000000000000000, 0.000000000000000000, 1.000000000000000000 ) ) ;
#867 = DIRECTION ( 'NONE',  ( 1.279215891003199648E-16, -1.000000000000000000, 0.000000000000000000 ) ) ;
#868 = ADVANCED_FACE ( 'NONE', ( #687 ), #931, .T. ) ;
#869 = EDGE_CURVE ( 'NONE', #594, #762, #554, .T. ) ;
#870 = ORIENTED_EDGE ( 'NONE', *, *, #710, .T. ) ;
#871 = VECTOR ( 'NONE', #617, 100.0000000000000000 ) ;
#872 = AXIS2_PLACEMENT_3D ( 'NONE', #659, #887, #278 ) ;
#873 = CIRCLE ( 'NONE', #792, 4.170131892398607931 ) ;
#874 = DIRECTION ( 'NONE',  ( 0.000000000000000000, 0.000000000000000000, 1.000000000000000000 ) ) ;
#875 = VECTOR ( 'NONE', #881, 100.0000000000000000 ) ;
#876 = ORIENTED_EDGE ( 'NONE', *, *, #261, .F. ) ;
#877 = DIRECTION ( 'NONE',  ( -0.000000000000000000, 1.000000000000000000, -0.000000000000000000 ) ) ;
#878 = ORIENTED_EDGE ( 'NONE', *, *, #588, .T. ) ;
#879 = PLANE ( 'NONE',  #266 ) ;
#880 = ORIENTED_EDGE ( 'NONE', *, *, #505, .T. ) ;
#881 = DIRECTION ( 'NONE',  ( -1.570092458683776646E-16, 0.7071067811865482389, -0.7071067811865467956 ) ) ;
#882 = ADVANCED_FACE ( 'NONE', ( #164 ), #793, .T. ) ;
#883 = ORIENTED_EDGE ( 'NONE', *, *, #271, .F. ) ;
#884 = EDGE_CURVE ( 'NONE', #509, #196, #621, .T. ) ;
#885 = DIRECTION ( 'NONE',  ( 0.000000000000000000, 0.000000000000000000, -1.000000000000000000 ) ) ;
#886 = ADVANCED_FACE ( 'NONE', ( #412 ), #719, .T. ) ;
#887 = DIRECTION ( 'NONE',  ( 0.000000000000000000, 0.000000000000000000, 1.000000000000000000 ) ) ;
#888 = EDGE_CURVE ( 'NONE', #966, #651, #541, .T. ) ;
#889 = ORIENTED_EDGE ( 'NONE', *, *, #913, .F. ) ;
#890 = DIRECTION ( 'NONE',  ( 0.000000000000000000, 0.000000000000000000, 1.000000000000000000 ) ) ;
#891 = ORIENTED_EDGE ( 'NONE', *, *, #653, .T. ) ;
#892 = FACE_OUTER_BOUND ( 'NONE', #978, .T. ) ;
#893 = EDGE_LOOP ( 'NONE', ( #817, #372, #387, #258 ) ) ;
#894 = CARTESIAN_POINT ( 'NONE',  ( 3.500000000000000444, 0.000000000000000000, 3.500000000000000444 ) ) ;
#895 = ORIENTED_EDGE ( 'NONE', *, *, #109, .T. ) ;
#896 = VERTEX_POINT ( 'NONE', #779 ) ;
#897 = LINE ( 'NONE', #206, #265 ) ;
#898 = LINE ( 'NONE', #977, #475 ) ;
#899 = VERTEX_POINT ( 'NONE', #394 ) ;
#900 = EDGE_CURVE ( 'NONE', #741, #348, #712, .T. ) ;
#901 = LINE ( 'NONE', #136, #922 ) ;
#902 = VECTOR ( 'NONE', #56, 100.0000000000000000 ) ;
#903 = DIRECTION ( 'NONE',  ( 0.000000000000000000, 0.7071067811865482389, -0.7071067811865467956 ) ) ;
#904 = VERTEX_POINT ( 'NONE', #30 ) ;
#905 = ORIENTED_EDGE ( 'NONE', *, *, #415, .T. ) ;
#906 = CARTESIAN_POINT ( 'NONE',  ( 3.500000000000000444, 0.000000000000000000, 3.750000000000000444 ) ) ;
#907 = PLANE ( 'NONE',  #378 ) ;
#908 = DIRECTION ( 'NONE',  ( 0.000000000000000000, 0.000000000000000000, -1.000000000000000000 ) ) ;
#909 = CARTESIAN_POINT ( 'NONE',  ( 3.146446609406725603, 0.5000000000000000000, 4.000000000000000888 ) ) ;
#910 = VECTOR ( 'NONE', #222, 100.0000000000000000 ) ;
#911 = VERTEX_POINT ( 'NONE', #333 ) ;
#912 = CARTESIAN_POINT ( 'NONE',  ( 3.146446609406725603, 0.000000000000000000, 4.000000000000000888 ) ) ;
#913 = EDGE_CURVE ( 'NONE', #949, #421, #947, .T. ) ;
#914 = LINE ( 'NONE', #430, #3 ) ;
#915 = LINE ( 'NONE', #460, #262 ) ;
#916 = ORIENTED_EDGE ( 'NONE', *, *, #161, .F. ) ;
#917 = DIRECTION ( 'NONE',  ( 0.000000000000000000, 0.000000000000000000, -1.000000000000000000 ) ) ;
#918 = DIRECTION ( 'NONE',  ( 1.000000000000000000, 0.000000000000000000, 1.387778780781446464E-15 ) ) ;
#919 = AXIS2_PLACEMENT_3D ( 'NONE', #537, #85, #754 ) ;
#920 = AXIS2_PLACEMENT_3D ( 'NONE', #539, #139, #457 ) ;
#921 = CARTESIAN_POINT ( 'NONE',  ( -4.363378722267793023E-16, 3.750000000000000000, 0.2500000000000008882 ) ) ;
#922 = VECTOR ( 'NONE', #210, 100.0000000000000000 ) ;
#923 = EDGE_CURVE ( 'NONE', #292, #439, #256, .T. ) ;
#924 = ORIENTED_EDGE ( 'NONE', *, *, #397, .F. ) ;
#925 = LINE ( 'NONE', #534, #105 ) ;
#926 = DIRECTION ( 'NONE',  ( 0.000000000000000000, 0.000000000000000000, -1.000000000000000000 ) ) ;
#927 = EDGE_CURVE ( 'NONE', #185, #713, #935, .T. ) ;
#928 = CARTESIAN_POINT ( 'NONE',  ( 3.500000000000000444, 0.000000000000000000, 3.146446609406726935 ) ) ;
#929 = VERTEX_POINT ( 'NONE', #20 ) ;
#930 = DIRECTION ( 'NONE',  ( 0.000000000000000000, 1.000000000000000000, 4.336808689942019708E-16 ) ) ;
#931 = TOROIDAL_SURFACE ( 'NONE', #237, 0.2500000000000000000, 0.2500000000000000000 ) ;
#932 = CARTESIAN_POINT ( 'NONE',  ( 4.000000000000000000, 3.500000000000000888, 0.2500000000000002220 ) ) ;
#933 = EDGE_CURVE ( 'NONE', #447, #713, #325, .T. ) ;
#934 = CARTESIAN_POINT ( 'NONE',  ( 3.500000000000000444, 0.2500000000000000000, 3.750000000000000000 ) ) ;
#935 = CIRCLE ( 'NONE', #802, 0.4999999999999997780 ) ;
#936 = ORIENTED_EDGE ( 'NONE', *, *, #900, .F. ) ;
#937 = LINE ( 'NONE', #245, #623 ) ;
#938 = DIRECTION ( 'NONE',  ( 0.000000000000000000, 0.000000000000000000, 1.000000000000000000 ) ) ;
#939 = STYLED_ITEM ( 'NONE', ( #964 ), #973 ) ;
#940 = DIRECTION ( 'NONE',  ( -1.000000000000000000, 0.000000000000000000, 0.000000000000000000 ) ) ;
#941 = VECTOR ( 'NONE', #480, 100.0000000000000000 ) ;
#942 = EDGE_LOOP ( 'NONE', ( #673, #680, #852 ) ) ;
#943 = SURFACE_STYLE_USAGE ( .BOTH. , #708 ) ;
#944 = EDGE_LOOP ( 'NONE', ( #118, #880, #233, #209, #393 ) ) ;
#945 = CARTESIAN_POINT ( 'NONE',  ( 0.000000000000000000, 4.000000000000000000, 4.000000000000000000 ) ) ;
#946 = ADVANCED_FACE ( 'NONE', ( #337 ), #788, .T. ) ;
#947 = LINE ( 'NONE', #178, #190 ) ;
#948 = VECTOR ( 'NONE', #359, 100.0000000000000000 ) ;
#949 = VERTEX_POINT ( 'NONE', #619 ) ;
#950 = LINE ( 'NONE', #787, #644 ) ;
#951 = CARTESIAN_POINT ( 'NONE',  ( 3.500000000000000444, 0.2500000000000000000, 3.500000000000000444 ) ) ;
#952 = ORIENTED_EDGE ( 'NONE', *, *, #849, .T. ) ;
#953 = FACE_OUTER_BOUND ( 'NONE', #743, .T. ) ;
#954 = VECTOR ( 'NONE', #446, 100.0000000000000000 ) ;
#955 = VECTOR ( 'NONE', #471, 100.0000000000000000 ) ;
#956 = EDGE_CURVE ( 'NONE', #736, #896, #242, .T. ) ;
#957 = EDGE_LOOP ( 'NONE', ( #149, #876, #369, #441 ) ) ;
#958 = DIRECTION ( 'NONE',  ( 0.000000000000000000, 0.000000000000000000, -1.000000000000000000 ) ) ;
#959 = EDGE_CURVE ( 'NONE', #789, #911, #322, .T. ) ;
#960 = EDGE_LOOP ( 'NONE', ( #656, #437, #327, #309 ) ) ;
#961 = CARTESIAN_POINT ( 'NONE',  ( 3.500000000000000444, 0.2500000000000000000, 3.750000000000000000 ) ) ;
#962 = ORIENTED_EDGE ( 'NONE', *, *, #572, .F. ) ;
#963 = CARTESIAN_POINT ( 'NONE',  ( 3.500000000000000444, 0.2500000000000000000, 3.500000000000000444 ) ) ;
#964 = PRESENTATION_STYLE_ASSIGNMENT (( #943 ) ) ;
#965 = VECTOR ( 'NONE', #16, 100.0000000000000000 ) ;
#966 = VERTEX_POINT ( 'NONE', #239 ) ;
#967 = CARTESIAN_POINT ( 'NONE',  ( 3.500000000000000444, 0.000000000000000000, 3.750000000000000000 ) ) ;
#968 = EDGE_CURVE ( 'NONE', #508, #713, #937, .T. ) ;
#969 = ORIENTED_EDGE ( 'NONE', *, *, #959, .T. ) ;
#970 = EDGE_LOOP ( 'NONE', ( #253, #971, #191, #768 ) ) ;
#971 = ORIENTED_EDGE ( 'NONE', *, *, #679, .F. ) ;
#972 = CARTESIAN_POINT ( 'NONE',  ( 0.5000000000000000000, 4.000000000000000000, 4.000000000000000000 ) ) ;
#973 = MANIFOLD_SOLID_BREP ( 'Fillet2', #423 ) ;
#974 = PRODUCT_RELATED_PRODUCT_CATEGORY ( 'part', '', ( #750 ) ) ;
#975 = ORIENTED_EDGE ( 'NONE', *, *, #666, .F. ) ;
#976 = ORIENTED_EDGE ( 'NONE', *, *, #710, .F. ) ;
#977 = CARTESIAN_POINT ( 'NONE',  ( 3.499999999999999556, 3.750000000000000444, 4.579669976578771715E-16 ) ) ;
#978 = EDGE_LOOP ( 'NONE', ( #686, #842, #276, #570, #507, #624 ) ) ;
#979 = CARTESIAN_POINT ( 'NONE',  ( 3.146446609406725159, 4.000000000000000888, 0.2500000000000004996 ) ) ;
#980 = CARTESIAN_POINT ( 'NONE',  ( 4.000000000000000000, 0.5000000000000000000, 1.178982612255158768 ) ) ;
#981 = ORIENTED_EDGE ( 'NONE', *, *, #384, .T. ) ;
#982 = FACE_OUTER_BOUND ( 'NONE', #957, .T. ) ;
#983 = DIRECTION ( 'NONE',  ( 0.000000000000000000, 0.000000000000000000, -1.000000000000000000 ) ) ;
#984 = DIRECTION ( 'NONE',  ( -1.000000000000000000, 0.000000000000000000, 0.000000000000000000 ) ) ;
#985 = TOROIDAL_SURFACE ( 'NONE', #512, 0.2500000000000000000, 0.2500000000000000000 ) ;
#986 = CARTESIAN_POINT ( 'NONE',  ( 0.000000000000000000, 0.5000000000000000000, 0.000000000000000000 ) ) ;
#987 = EDGE_CURVE ( 'NONE', #565, #858, #757, .T. ) ;
#988 = ORIENTED_EDGE ( 'NONE', *, *, #70, .T. ) ;
#989 = DIRECTION ( 'NONE',  ( 0.000000000000000000, -1.000000000000000000, 0.000000000000000000 ) ) ;
#990 = VERTEX_POINT ( 'NONE', #346 ) ;
#991 = PLANE ( 'NONE',  #839 ) ;
ENDSEC;
END-ISO-10303-21;
